<?xml version="1.0" standalone="yes"?>

<svg version="1.1" viewBox="0.0 0.0 808.1653543307086 576.7034120734908" fill="none" stroke="none" stroke-linecap="square" stroke-miterlimit="10" xmlns="http://www.w3.org/2000/svg" xmlns:xlink="http://www.w3.org/1999/xlink"><clipPath id="p.0"><path d="m0 0l808.16534 0l0 576.7034l-808.16534 0l0 -576.7034z" clip-rule="nonzero"></path></clipPath><g clip-path="url(#p.0)"><path fill="#ffffff" d="m0 0l808.16534 0l0 576.7034l-808.16534 0z" fill-rule="nonzero"></path><path fill="#e5373a" d="m41.272964 356.74802l374.42517 0l0 92.12601l-374.42517 0z" fill-rule="nonzero"></path><path fill="#ffffff" d="m178.036 409.73102l0 -13.59375l2.71875 0l3.21875 9.625q0.4375 1.34375 0.640625 2.015625q0.234375 -0.75 0.734375 -2.1875l3.25 -9.453125l2.421875 0l0 13.59375l-1.734375 0l0 -11.390625l-3.953125 11.390625l-1.625 0l-3.9375 -11.578125l0 11.578125l-1.734375 0zm21.822052 -1.21875q-0.9375 0.796875 -1.796875 1.125q-0.859375 0.3125 -1.84375 0.3125q-1.609375 0 -2.484375 -0.78125q-0.875 -0.796875 -0.875 -2.03125q0 -0.734375 0.328125 -1.328125q0.328125 -0.59375 0.859375 -0.953125q0.53125 -0.359375 1.203125 -0.546875q0.5 -0.140625 1.484375 -0.25q2.03125 -0.25 2.984375 -0.578125q0 -0.34375 0 -0.4375q0 -1.015625 -0.46875 -1.4375q-0.640625 -0.5625 -1.90625 -0.5625q-1.171875 0 -1.734375 0.40625q-0.5625 0.40625 -0.828125 1.46875l-1.640625 -0.234375q0.234375 -1.046875 0.734375 -1.6875q0.515625 -0.640625 1.46875 -0.984375q0.96875 -0.359375 2.25 -0.359375q1.265625 0 2.046875 0.296875q0.78125 0.296875 1.15625 0.75q0.375 0.453125 0.515625 1.140625q0.09375 0.421875 0.09375 1.53125l0 2.234375q0 2.328125 0.09375 2.953125q0.109375 0.609375 0.4375 1.171875l-1.75 0q-0.265625 -0.515625 -0.328125 -1.21875zm-0.140625 -3.71875q-0.90625 0.359375 -2.734375 0.625q-1.03125 0.140625 -1.453125 0.328125q-0.421875 0.1875 -0.65625 0.546875q-0.234375 0.359375 -0.234375 0.796875q0 0.671875 0.5 1.125q0.515625 0.4375 1.484375 0.4375q0.96875 0 1.71875 -0.421875q0.75 -0.4375 1.109375 -1.15625q0.265625 -0.578125 0.265625 -1.671875l0 -0.609375zm4.094467 -6.75l0 -1.90625l1.671875 0l0 1.90625l-1.671875 0zm0 11.6875l0 -9.859375l1.671875 0l0 9.859375l-1.671875 0zm4.129196 0l0 -9.859375l1.5 0l0 1.40625q1.09375 -1.625 3.140625 -1.625q0.890625 0 1.640625 0.328125q0.75 0.3125 1.109375 0.84375q0.375 0.515625 0.53125 1.21875q0.09375 0.46875 0.09375 1.625l0 6.0625l-1.671875 0l0 -6.0q0 -1.015625 -0.203125 -1.515625q-0.1875 -0.515625 -0.6875 -0.8125q-0.5 -0.296875 -1.171875 -0.296875q-1.0625 0 -1.84375 0.671875q-0.765625 0.671875 -0.765625 2.578125l0 5.375l-1.671875 0zm15.699646 0l0 -13.59375l5.109375 0q1.546875 0 2.484375 0.40625q0.953125 0.40625 1.484375 1.265625q0.53125 0.859375 0.53125 1.796875q0 0.875 -0.46875 1.65625q-0.46875 0.765625 -1.4375 1.234375q1.234375 0.359375 1.890625 1.234375q0.671875 0.875 0.671875 2.0625q0 0.953125 -0.40625 1.78125q-0.390625 0.8125 -0.984375 1.265625q-0.59375 0.4375 -1.5 0.671875q-0.890625 0.21875 -2.1875 0.21875l-5.1875 0zm1.796875 -7.890625l2.9375 0q1.203125 0 1.71875 -0.15625q0.6875 -0.203125 1.03125 -0.671875q0.359375 -0.46875 0.359375 -1.1875q0 -0.671875 -0.328125 -1.1875q-0.328125 -0.515625 -0.9375 -0.703125q-0.59375 -0.203125 -2.0625 -0.203125l-2.71875 0l0 4.109375zm0 6.28125l3.390625 0q0.875 0 1.21875 -0.0625q0.625 -0.109375 1.046875 -0.359375q0.421875 -0.265625 0.6875 -0.765625q0.265625 -0.5 0.265625 -1.140625q0 -0.765625 -0.390625 -1.328125q-0.390625 -0.5625 -1.078125 -0.78125q-0.6875 -0.234375 -1.984375 -0.234375l-3.15625 0l0 4.671875zm16.959198 1.609375l0 -1.453125q-1.140625 1.671875 -3.125 1.671875q-0.859375 0 -1.625 -0.328125q-0.75 -0.34375 -1.125 -0.84375q-0.359375 -0.5 -0.515625 -1.234375q-0.09375 -0.5 -0.09375 -1.5625l0 -6.109375l1.671875 0l0 5.46875q0 1.3125 0.09375 1.765625q0.15625 0.65625 0.671875 1.03125q0.515625 0.375 1.265625 0.375q0.75 0 1.40625 -0.375q0.65625 -0.390625 0.921875 -1.046875q0.28125 -0.671875 0.28125 -1.9375l0 -5.28125l1.671875 0l0 9.859375l-1.5 0zm3.9225922 0l0 -9.859375l1.5 0l0 1.40625q1.09375 -1.625 3.140625 -1.625q0.890625 0 1.640625 0.328125q0.75 0.3125 1.109375 0.84375q0.375 0.515625 0.53125 1.21875q0.09375 0.46875 0.09375 1.625l0 6.0625l-1.671875 0l0 -6.0q0 -1.015625 -0.203125 -1.515625q-0.1875 -0.515625 -0.6875 -0.8125q-0.5 -0.296875 -1.171875 -0.296875q-1.0625 0 -1.84375 0.671875q-0.765625 0.671875 -0.765625 2.578125l0 5.375l-1.671875 0zm16.766357 0l0 -1.25q-0.9375 1.46875 -2.75 1.46875q-1.171875 0 -2.171875 -0.640625q-0.984375 -0.65625 -1.53125 -1.8125q-0.53125 -1.171875 -0.53125 -2.6875q0 -1.46875 0.484375 -2.671875q0.5 -1.203125 1.46875 -1.84375q0.984375 -0.640625 2.203125 -0.640625q0.890625 0 1.578125 0.375q0.703125 0.375 1.140625 0.984375l0 -4.875l1.65625 0l0 13.59375l-1.546875 0zm-5.28125 -4.921875q0 1.890625 0.796875 2.828125q0.8125 0.9375 1.890625 0.9375q1.09375 0 1.859375 -0.890625q0.765625 -0.890625 0.765625 -2.734375q0 -2.015625 -0.78125 -2.953125q-0.78125 -0.953125 -1.921875 -0.953125q-1.109375 0 -1.859375 0.90625q-0.75 0.90625 -0.75 2.859375zm9.235077 4.921875l0 -13.59375l1.671875 0l0 13.59375l-1.671875 0zm10.926086 -3.171875l1.71875 0.21875q-0.40625 1.5 -1.515625 2.34375q-1.09375 0.828125 -2.8125 0.828125q-2.15625 0 -3.421875 -1.328125q-1.265625 -1.328125 -1.265625 -3.734375q0 -2.484375 1.265625 -3.859375q1.28125 -1.375 3.328125 -1.375q1.984375 0 3.234375 1.34375q1.25 1.34375 1.25 3.796875q0 0.140625 -0.015625 0.4375l-7.34375 0q0.09375 1.625 0.921875 2.484375q0.828125 0.859375 2.0625 0.859375q0.90625 0 1.546875 -0.46875q0.65625 -0.484375 1.046875 -1.546875zm-5.484375 -2.703125l5.5 0q-0.109375 -1.234375 -0.625 -1.859375q-0.796875 -0.96875 -2.078125 -0.96875q-1.140625 0 -1.9375 0.78125q-0.78125 0.765625 -0.859375 2.046875z" fill-rule="nonzero"></path><path fill="#000000" fill-opacity="0.0" d="m7.569554 286.55118l71.685036 0l0 39.716553l-71.685036 0z" fill-rule="nonzero"></path><path fill="#000000" d="m24.051264 313.4712l0 -13.59375l1.796875 0l0 11.984375l6.703127 0l0 1.609375l-8.500002 0zm9.610094 -4.921875q0 -2.734375 1.53125 -4.0625q1.265625 -1.09375 3.09375 -1.09375q2.03125 0 3.3125 1.34375q1.296875 1.328125 1.296875 3.671875q0 1.90625 -0.578125 3.0q-0.5625 1.078125 -1.65625 1.6875q-1.078125 0.59375 -2.375 0.59375q-2.0625 0 -3.34375 -1.328125q-1.28125 -1.328125 -1.28125 -3.8125zm1.71875 0q0 1.890625 0.828125 2.828125q0.828125 0.9375 2.078125 0.9375q1.25 0 2.0625 -0.9375q0.828125 -0.953125 0.828125 -2.890625q0 -1.828125 -0.828125 -2.765625q-0.828125 -0.9375 -2.0625 -0.9375q-1.25 0 -2.078125 0.9375q-0.828125 0.9375 -0.828125 2.828125zm15.719467 3.703125q-0.9375 0.796875 -1.796875 1.125q-0.859375 0.3125 -1.84375 0.3125q-1.609375 0 -2.484375 -0.78125q-0.875 -0.796875 -0.875 -2.03125q0 -0.734375 0.328125 -1.328125q0.328125 -0.59375 0.859375 -0.953125q0.53125 -0.359375 1.203125 -0.546875q0.5 -0.140625 1.484375 -0.25q2.03125 -0.25 2.984375 -0.578125q0 -0.34375 0 -0.4375q0 -1.015625 -0.46875 -1.4375q-0.640625 -0.5625 -1.90625 -0.5625q-1.171875 0 -1.734375 0.40625q-0.5625 0.40625 -0.828125 1.46875l-1.640625 -0.234375q0.234375 -1.046875 0.734375 -1.6875q0.515625 -0.640625 1.46875 -0.984375q0.96875 -0.359375 2.25 -0.359375q1.265625 0 2.046875 0.296875q0.78125 0.296875 1.15625 0.75q0.375 0.453125 0.515625 1.140625q0.09375 0.421875 0.09375 1.53125l0 2.234375q0 2.328125 0.09375 2.953125q0.109375 0.609375 0.4375 1.171875l-1.75 0q-0.265625 -0.515625 -0.328125 -1.21875zm-0.140625 -3.71875q-0.90625 0.359375 -2.734375 0.625q-1.03125 0.140625 -1.453125 0.328125q-0.421875 0.1875 -0.65625 0.546875q-0.234375 0.359375 -0.234375 0.796875q0 0.671875 0.5 1.125q0.515625 0.4375 1.484375 0.4375q0.96875 0 1.71875 -0.421875q0.75 -0.4375 1.109375 -1.15625q0.265625 -0.578125 0.265625 -1.671875l0 -0.609375zm10.469467 4.9375l0 -1.25q-0.9375 1.46875 -2.75 1.46875q-1.171875 0 -2.171875 -0.640625q-0.984375 -0.65625 -1.53125 -1.8125q-0.53125 -1.171875 -0.53125 -2.6875q0 -1.46875 0.484375 -2.671875q0.5 -1.203125 1.46875 -1.84375q0.984375 -0.640625 2.203125 -0.640625q0.890625 0 1.578125 0.375q0.703125 0.375 1.140625 0.984375l0 -4.875l1.65625 0l0 13.59375l-1.546875 0zm-5.28125 -4.921875q0 1.890625 0.796875 2.828125q0.8125 0.9375 1.890625 0.9375q1.09375 0 1.859375 -0.890625q0.765625 -0.890625 0.765625 -2.734375q0 -2.015625 -0.78125 -2.953125q-0.78125 -0.953125 -1.921875 -0.953125q-1.109375 0 -1.859375 0.90625q-0.75 0.90625 -0.75 2.859375z" fill-rule="nonzero"></path><path fill="#000000" fill-opacity="0.0" d="m41.272964 318.27954l0 31.275574" fill-rule="nonzero"></path><path stroke="#000000" stroke-width="1.0" stroke-linejoin="round" stroke-linecap="butt" d="m41.272964 318.27954l0 25.275574" fill-rule="evenodd"></path><path fill="#000000" stroke="#000000" stroke-width="1.0" stroke-linecap="butt" d="m39.621235 343.5551l1.6517296 4.538086l1.6517334 -4.538086z" fill-rule="evenodd"></path><path fill="#000000" fill-opacity="0.0" d="m373.8714 286.55118l75.212585 0l0 39.716553l-75.212585 0z" fill-rule="nonzero"></path><path fill="#000000" d="m386.01358 313.4712l0 -13.59375l6.03125 0q1.8125 0 2.75 0.359375q0.953125 0.359375 1.515625 1.296875q0.5625 0.921875 0.5625 2.046875q0 1.453125 -0.9375 2.453125q-0.921875 0.984375 -2.890625 1.25q0.71875 0.34375 1.09375 0.671875q0.78125 0.734375 1.484375 1.8125l2.375 3.703125l-2.265625 0l-1.796875 -2.828125q-0.796875 -1.21875 -1.3125 -1.875q-0.5 -0.65625 -0.90625 -0.90625q-0.40625 -0.265625 -0.8125 -0.359375q-0.3125 -0.078125 -1.015625 -0.078125l-2.078125 0l0 6.046875l-1.796875 0zm1.796875 -7.59375l3.859375 0q1.234375 0 1.921875 -0.25q0.703125 -0.265625 1.0625 -0.828125q0.375 -0.5625 0.375 -1.21875q0 -0.96875 -0.703125 -1.578125q-0.703125 -0.625 -2.21875 -0.625l-4.296875 0l0 4.5zm18.176056 4.421875l1.71875 0.21875q-0.40625 1.5 -1.515625 2.34375q-1.09375 0.828125 -2.8125 0.828125q-2.15625 0 -3.421875 -1.328125q-1.265625 -1.328125 -1.265625 -3.734375q0 -2.484375 1.265625 -3.859375q1.28125 -1.375 3.328125 -1.375q1.984375 0 3.234375 1.34375q1.25 1.34375 1.25 3.796875q0 0.140625 -0.015625 0.4375l-7.34375 0q0.09375 1.625 0.921875 2.484375q0.828125 0.859375 2.0625 0.859375q0.90625 0 1.546875 -0.46875q0.65625 -0.484375 1.046875 -1.546875zm-5.484375 -2.703125l5.5 0q-0.109375 -1.234375 -0.625 -1.859375q-0.796875 -0.96875 -2.078125 -0.96875q-1.140625 0 -1.9375 0.78125q-0.78125 0.765625 -0.859375 2.046875zm15.547607 4.65625q-0.9375 0.796875 -1.796875 1.125q-0.859375 0.3125 -1.84375 0.3125q-1.609375 0 -2.484375 -0.78125q-0.875 -0.796875 -0.875 -2.03125q0 -0.734375 0.328125 -1.328125q0.328125 -0.59375 0.859375 -0.953125q0.53125 -0.359375 1.203125 -0.546875q0.5 -0.140625 1.484375 -0.25q2.03125 -0.25 2.984375 -0.578125q0 -0.34375 0 -0.4375q0 -1.015625 -0.46875 -1.4375q-0.640625 -0.5625 -1.90625 -0.5625q-1.171875 0 -1.734375 0.40625q-0.5625 0.40625 -0.828125 1.46875l-1.640625 -0.234375q0.234375 -1.046875 0.734375 -1.6875q0.515625 -0.640625 1.46875 -0.984375q0.96875 -0.359375 2.25 -0.359375q1.265625 0 2.046875 0.296875q0.78125 0.296875 1.15625 0.75q0.375 0.453125 0.515625 1.140625q0.09375 0.421875 0.09375 1.53125l0 2.234375q0 2.328125 0.09375 2.953125q0.109375 0.609375 0.4375 1.171875l-1.75 0q-0.265625 -0.515625 -0.328125 -1.21875zm-0.140625 -3.71875q-0.90625 0.359375 -2.734375 0.625q-1.03125 0.140625 -1.453125 0.328125q-0.421875 0.1875 -0.65625 0.546875q-0.234375 0.359375 -0.234375 0.796875q0 0.671875 0.5 1.125q0.515625 0.4375 1.484375 0.4375q0.96875 0 1.71875 -0.421875q0.75 -0.4375 1.109375 -1.15625q0.265625 -0.578125 0.265625 -1.671875l0 -0.609375zm10.469452 4.9375l0 -1.25q-0.9375 1.46875 -2.75 1.46875q-1.171875 0 -2.171875 -0.640625q-0.984375 -0.65625 -1.53125 -1.8125q-0.53125 -1.171875 -0.53125 -2.6875q0 -1.46875 0.484375 -2.671875q0.5 -1.203125 1.46875 -1.84375q0.984375 -0.640625 2.203125 -0.640625q0.890625 0 1.578125 0.375q0.703125 0.375 1.140625 0.984375l0 -4.875l1.65625 0l0 13.59375l-1.546875 0zm-5.28125 -4.921875q0 1.890625 0.796875 2.828125q0.8125 0.9375 1.890625 0.9375q1.09375 0 1.859375 -0.890625q0.765625 -0.890625 0.765625 -2.734375q0 -2.015625 -0.78125 -2.953125q-0.78125 -0.953125 -1.921875 -0.953125q-1.109375 0 -1.859375 0.90625q-0.75 0.90625 -0.75 2.859375zm9.188232 8.71875l-0.171875 -1.5625q0.546875 0.140625 0.953125 0.140625q0.546875 0 0.875 -0.1875q0.34375 -0.1875 0.5625 -0.515625q0.15625 -0.25 0.5 -1.25q0.046875 -0.140625 0.15625 -0.40625l-3.734375 -9.875l1.796875 0l2.046875 5.71875q0.40625 1.078125 0.71875 2.28125q0.28125 -1.15625 0.6875 -2.25l2.09375 -5.75l1.671875 0l-3.75 10.03125q-0.59375 1.625 -0.9375 2.234375q-0.4375 0.828125 -1.015625 1.203125q-0.578125 0.390625 -1.375 0.390625q-0.484375 0 -1.078125 -0.203125z" fill-rule="nonzero"></path><path fill="#000000" fill-opacity="0.0" d="m414.2756 318.28085l0 31.275574" fill-rule="nonzero"></path><path stroke="#000000" stroke-width="1.0" stroke-linejoin="round" stroke-linecap="butt" d="m414.2756 318.28085l0 25.275574" fill-rule="evenodd"></path><path fill="#000000" stroke="#000000" stroke-width="1.0" stroke-linecap="butt" d="m412.62387 343.55643l1.6517334 4.538086l1.6517334 -4.538086z" fill-rule="evenodd"></path><path fill="#000000" fill-opacity="0.0" d="m41.272964 249.76378l293.6693 0l0 44.7874l-293.6693 0z" fill-rule="nonzero"></path><path fill="#000000" d="m51.72609 276.68378l0 -13.484375l2.75 0l0 11.1875l6.828125 0l0 2.296875l-9.578125 0zm13.255356 -6.84375l-2.359375 -0.4375q0.390625 -1.421875 1.359375 -2.109375q0.984375 -0.6875 2.90625 -0.6875q1.734375 0 2.59375 0.421875q0.859375 0.40625 1.203125 1.046875q0.34375 0.625 0.34375 2.328125l-0.03125 3.046875q0 1.296875 0.125 1.921875q0.125 0.609375 0.46875 1.3125l-2.578125 0q-0.09375 -0.265625 -0.25 -0.765625q-0.0625 -0.234375 -0.09375 -0.3125q-0.65625 0.65625 -1.421875 0.984375q-0.765625 0.3125 -1.625 0.3125q-1.515625 0 -2.40625 -0.8125q-0.875 -0.828125 -0.875 -2.09375q0 -0.84375 0.390625 -1.484375q0.40625 -0.65625 1.125 -1.0q0.71875 -0.359375 2.078125 -0.625q1.828125 -0.328125 2.53125 -0.625l0 -0.265625q0 -0.75 -0.375 -1.0625q-0.359375 -0.328125 -1.390625 -0.328125q-0.703125 0 -1.09375 0.28125q-0.390625 0.265625 -0.625 0.953125zm3.484375 2.109375q-0.5 0.171875 -1.59375 0.40625q-1.078125 0.234375 -1.40625 0.453125q-0.515625 0.359375 -0.515625 0.921875q0 0.546875 0.40625 0.953125q0.40625 0.390625 1.046875 0.390625q0.703125 0 1.34375 -0.46875q0.46875 -0.359375 0.625 -0.859375q0.09375 -0.34375 0.09375 -1.28125l0 -0.515625zm3.8913422 4.734375l0 -2.03125l3.703125 -4.234375q0.90625 -1.046875 1.34375 -1.484375q-0.453125 0.03125 -1.203125 0.046875l-3.484375 0.015625l0 -2.171875l8.15625 0l0 1.859375l-3.765625 4.328125l-1.328125 1.4375q1.078125 -0.0625 1.34375 -0.0625l4.03125 0l0 2.296875l-8.796875 0zm9.140625 -9.859375l2.78125 0l2.359375 7.0l2.296875 -7.0l2.703125 0l-3.484375 9.484375l-0.625 1.71875q-0.34375 0.859375 -0.65625 1.3125q-0.296875 0.46875 -0.703125 0.75q-0.40625 0.28125 -1.0 0.4375q-0.59375 0.15625 -1.328125 0.15625q-0.75 0 -1.46875 -0.15625l-0.234375 -2.046875q0.609375 0.125 1.09375 0.125q0.921875 0 1.34375 -0.53125q0.4375 -0.53125 0.671875 -1.359375l-3.75 -9.890625zm16.887146 9.859375l0 -13.484375l2.75 0l0 11.1875l6.828125 0l0 2.296875l-9.578125 0zm10.708481 -5.0625q0 -1.296875 0.640625 -2.515625q0.640625 -1.21875 1.8125 -1.859375q1.171875 -0.640625 2.609375 -0.640625q2.25 0 3.671875 1.453125q1.421875 1.453125 1.421875 3.671875q0 2.234375 -1.4375 3.703125q-1.4375 1.46875 -3.625 1.46875q-1.359375 0 -2.59375 -0.609375q-1.21875 -0.609375 -1.859375 -1.796875q-0.640625 -1.1875 -0.640625 -2.875zm2.671875 0.140625q0 1.46875 0.6875 2.25q0.703125 0.765625 1.71875 0.765625q1.015625 0 1.703125 -0.765625q0.703125 -0.78125 0.703125 -2.265625q0 -1.453125 -0.703125 -2.234375q-0.6875 -0.78125 -1.703125 -0.78125q-1.015625 0 -1.71875 0.78125q-0.6875 0.78125 -0.6875 2.25zm11.270981 -1.921875l-2.359375 -0.4375q0.390625 -1.421875 1.359375 -2.109375q0.984375 -0.6875 2.90625 -0.6875q1.734375 0 2.59375 0.421875q0.859375 0.40625 1.203125 1.046875q0.34375 0.625 0.34375 2.328125l-0.03125 3.046875q0 1.296875 0.125 1.921875q0.125 0.609375 0.46875 1.3125l-2.578125 0q-0.09375 -0.265625 -0.25 -0.765625q-0.0625 -0.234375 -0.09375 -0.3125q-0.65625 0.65625 -1.421875 0.984375q-0.765625 0.3125 -1.625 0.3125q-1.515625 0 -2.40625 -0.8125q-0.875 -0.828125 -0.875 -2.09375q0 -0.84375 0.390625 -1.484375q0.40625 -0.65625 1.125 -1.0q0.71875 -0.359375 2.078125 -0.625q1.828125 -0.328125 2.53125 -0.625l0 -0.265625q0 -0.75 -0.375 -1.0625q-0.359375 -0.328125 -1.390625 -0.328125q-0.703125 0 -1.09375 0.28125q-0.390625 0.265625 -0.625 0.953125zm3.484375 2.109375q-0.5 0.171875 -1.59375 0.40625q-1.078125 0.234375 -1.40625 0.453125q-0.515625 0.359375 -0.515625 0.921875q0 0.546875 0.40625 0.953125q0.40625 0.390625 1.046875 0.390625q0.703125 0 1.34375 -0.46875q0.46875 -0.359375 0.625 -0.859375q0.09375 -0.34375 0.09375 -1.28125l0 -0.515625zm13.985092 4.734375l-2.421875 0l0 -1.453125q-0.609375 0.84375 -1.4375 1.265625q-0.8125 0.40625 -1.640625 0.40625q-1.703125 0 -2.921875 -1.359375q-1.203125 -1.375 -1.203125 -3.828125q0 -2.5 1.171875 -3.796875q1.1875 -1.3125 2.984375 -1.3125q1.65625 0 2.859375 1.375l0 -4.890625l2.609375 0l0 13.59375zm-6.96875 -5.140625q0 1.578125 0.4375 2.28125q0.640625 1.015625 1.765625 1.015625q0.90625 0 1.53125 -0.765625q0.625 -0.765625 0.625 -2.28125q0 -1.703125 -0.609375 -2.4375q-0.609375 -0.75 -1.5625 -0.75q-0.9375 0 -1.5625 0.734375q-0.625 0.734375 -0.625 2.203125zm9.317856 -6.046875l0 -2.40625l2.609375 0l0 2.40625l-2.609375 0zm0 11.1875l0 -9.859375l2.609375 0l0 9.859375l-2.609375 0zm14.152054 0l-2.609375 0l0 -5.03125q0 -1.59375 -0.171875 -2.0625q-0.15625 -0.46875 -0.53125 -0.71875q-0.375 -0.265625 -0.90625 -0.265625q-0.6875 0 -1.234375 0.375q-0.53125 0.359375 -0.734375 0.984375q-0.1875 0.609375 -0.1875 2.25l0 4.46875l-2.609375 0l0 -9.859375l2.421875 0l0 1.453125q1.296875 -1.671875 3.25 -1.671875q0.859375 0 1.578125 0.3125q0.71875 0.3125 1.078125 0.796875q0.359375 0.484375 0.5 1.09375q0.15625 0.609375 0.15625 1.75l0 6.125zm2.1928558 0.65625l2.96875 0.359375q0.078125 0.515625 0.34375 0.703125q0.375 0.28125 1.171875 0.28125q1.03125 0 1.53125 -0.296875q0.34375 -0.203125 0.515625 -0.65625q0.125 -0.328125 0.125 -1.203125l0 -1.4375q-1.171875 1.59375 -2.953125 1.59375q-1.984375 0 -3.140625 -1.671875q-0.90625 -1.328125 -0.90625 -3.3125q0 -2.46875 1.1875 -3.78125q1.1875 -1.3125 2.96875 -1.3125q1.828125 0 3.015625 1.609375l0 -1.390625l2.4375 0l0 8.84375q0 1.75 -0.296875 2.609375q-0.28125 0.859375 -0.796875 1.34375q-0.515625 0.5 -1.390625 0.78125q-0.859375 0.28125 -2.1875 0.28125q-2.515625 0 -3.5625 -0.859375q-1.046875 -0.859375 -1.046875 -2.171875q0 -0.140625 0.015625 -0.3125zm2.328125 -5.78125q0 1.5625 0.609375 2.296875q0.609375 0.71875 1.5 0.71875q0.953125 0 1.609375 -0.734375q0.65625 -0.75 0.65625 -2.21875q0 -1.53125 -0.640625 -2.265625q-0.625 -0.75 -1.578125 -0.75q-0.9375 0 -1.546875 0.734375q-0.609375 0.71875 -0.609375 2.21875zm16.329285 5.125l-3.125 -9.859375l2.53125 0l1.859375 6.46875l1.6875 -6.46875l2.515625 0l1.640625 6.46875l1.890625 -6.46875l2.5625 0l-3.15625 9.859375l-2.515625 0l-1.6875 -6.34375l-1.671875 6.34375l-2.53125 0zm12.667679 -11.1875l0 -2.40625l2.609375 0l0 2.40625l-2.609375 0zm0 11.1875l0 -9.859375l2.609375 0l0 9.859375l-2.609375 0zm9.698929 -9.859375l0 2.078125l-1.78125 0l0 3.984375q0 1.203125 0.046875 1.40625q0.0625 0.1875 0.234375 0.328125q0.1875 0.125 0.453125 0.125q0.359375 0 1.046875 -0.25l0.21875 2.015625q-0.90625 0.390625 -2.0625 0.390625q-0.703125 0 -1.265625 -0.234375q-0.5625 -0.234375 -0.828125 -0.609375q-0.265625 -0.375 -0.375 -1.015625q-0.078125 -0.453125 -0.078125 -1.84375l0 -4.296875l-1.203125 0l0 -2.078125l1.203125 0l0 -1.953125l2.609375 -1.515625l0 3.46875l1.78125 0zm4.306427 -3.734375l0 5.0q1.25 -1.484375 3.015625 -1.484375q0.890625 0 1.609375 0.34375q0.734375 0.328125 1.09375 0.84375q0.375 0.515625 0.5 1.15625q0.140625 0.625 0.140625 1.953125l0 5.78125l-2.609375 0l0 -5.203125q0 -1.546875 -0.15625 -1.96875q-0.140625 -0.421875 -0.515625 -0.65625q-0.375 -0.25 -0.9375 -0.25q-0.65625 0 -1.171875 0.3125q-0.5 0.3125 -0.734375 0.953125q-0.234375 0.640625 -0.234375 1.875l0 4.9375l-2.609375 0l0 -13.59375l2.609375 0zm13.985535 13.59375l0 -13.59375l4.421875 0q2.5 0 3.265625 0.203125q1.15625 0.296875 1.9375 1.328125q0.796875 1.015625 0.796875 2.640625q0 1.25 -0.453125 2.109375q-0.453125 0.859375 -1.15625 1.34375q-0.703125 0.484375 -1.421875 0.640625q-0.984375 0.203125 -2.84375 0.203125l-1.796875 0l0 5.125l-2.75 0zm2.75 -11.296875l0 3.859375l1.5 0q1.625 0 2.171875 -0.21875q0.546875 -0.21875 0.859375 -0.671875q0.3125 -0.453125 0.3125 -1.046875q0 -0.75 -0.4375 -1.234375q-0.4375 -0.484375 -1.09375 -0.59375q-0.5 -0.09375 -1.984375 -0.09375l-1.328125 0zm12.177948 11.296875l-2.609375 0l0 -9.859375l2.421875 0l0 1.40625q0.625 -0.984375 1.109375 -1.296875q0.5 -0.328125 1.140625 -0.328125q0.890625 0 1.71875 0.5l-0.8125 2.265625q-0.65625 -0.421875 -1.21875 -0.421875q-0.546875 0 -0.9375 0.296875q-0.375 0.296875 -0.59375 1.09375q-0.21875 0.78125 -0.21875 3.296875l0 3.046875zm10.463394 -3.140625l2.609375 0.4375q-0.5 1.4375 -1.59375 2.1875q-1.078125 0.734375 -2.703125 0.734375q-2.5625 0 -3.796875 -1.671875q-0.96875 -1.34375 -0.96875 -3.40625q0 -2.4375 1.265625 -3.828125q1.28125 -1.390625 3.25 -1.390625q2.1875 0 3.453125 1.453125q1.28125 1.453125 1.234375 4.453125l-6.53125 0q0.015625 1.15625 0.625 1.8125q0.609375 0.640625 1.5 0.640625q0.609375 0 1.03125 -0.328125q0.421875 -0.34375 0.625 -1.09375zm0.15625 -2.625q-0.03125 -1.140625 -0.59375 -1.71875q-0.546875 -0.59375 -1.34375 -0.59375q-0.859375 0 -1.40625 0.625q-0.5625 0.609375 -0.546875 1.6875l3.890625 0zm4.516342 5.765625l0 -13.59375l2.609375 0l0 13.59375l-2.609375 0zm4.589554 -5.0625q0 -1.296875 0.640625 -2.515625q0.640625 -1.21875 1.8125 -1.859375q1.171875 -0.640625 2.609375 -0.640625q2.25 0 3.671875 1.453125q1.421875 1.453125 1.421875 3.671875q0 2.234375 -1.4375 3.703125q-1.4375 1.46875 -3.625 1.46875q-1.359375 0 -2.59375 -0.609375q-1.21875 -0.609375 -1.859375 -1.796875q-0.640625 -1.1875 -0.640625 -2.875zm2.671875 0.140625q0 1.46875 0.6875 2.25q0.703125 0.765625 1.71875 0.765625q1.015625 0 1.703125 -0.765625q0.703125 -0.78125 0.703125 -2.265625q0 -1.453125 -0.703125 -2.234375q-0.6875 -0.78125 -1.703125 -0.78125q-1.015625 0 -1.71875 0.78125q-0.6875 0.78125 -0.6875 2.25zm11.270996 -1.921875l-2.359375 -0.4375q0.390625 -1.421875 1.359375 -2.109375q0.984375 -0.6875 2.90625 -0.6875q1.734375 0 2.59375 0.421875q0.859375 0.40625 1.203125 1.046875q0.34375 0.625 0.34375 2.328125l-0.03125 3.046875q0 1.296875 0.125 1.921875q0.125 0.609375 0.46875 1.3125l-2.578125 0q-0.09375 -0.265625 -0.25 -0.765625q-0.0625 -0.234375 -0.09375 -0.3125q-0.65625 0.65625 -1.421875 0.984375q-0.765625 0.3125 -1.625 0.3125q-1.515625 0 -2.40625 -0.8125q-0.875 -0.828125 -0.875 -2.09375q0 -0.84375 0.390625 -1.484375q0.40625 -0.65625 1.125 -1.0q0.71875 -0.359375 2.078125 -0.625q1.828125 -0.328125 2.53125 -0.625l0 -0.265625q0 -0.75 -0.375 -1.0625q-0.359375 -0.328125 -1.390625 -0.328125q-0.703125 0 -1.09375 0.28125q-0.390625 0.265625 -0.625 0.953125zm3.484375 2.109375q-0.5 0.171875 -1.59375 0.40625q-1.078125 0.234375 -1.40625 0.453125q-0.515625 0.359375 -0.515625 0.921875q0 0.546875 0.40625 0.953125q0.40625 0.390625 1.046875 0.390625q0.703125 0 1.34375 -0.46875q0.46875 -0.359375 0.625 -0.859375q0.09375 -0.34375 0.09375 -1.28125l0 -0.515625zm13.985077 4.734375l-2.421875 0l0 -1.453125q-0.609375 0.84375 -1.4375 1.265625q-0.8125 0.40625 -1.640625 0.40625q-1.703125 0 -2.921875 -1.359375q-1.203125 -1.375 -1.203125 -3.828125q0 -2.5 1.171875 -3.796875q1.1875 -1.3125 2.984375 -1.3125q1.65625 0 2.859375 1.375l0 -4.890625l2.609375 0l0 13.59375zm-6.96875 -5.140625q0 1.578125 0.4375 2.28125q0.640625 1.015625 1.765625 1.015625q0.90625 0 1.53125 -0.765625q0.625 -0.765625 0.625 -2.28125q0 -1.703125 -0.609375 -2.4375q-0.609375 -0.75 -1.5625 -0.75q-0.9375 0 -1.5625 0.734375q-0.625 0.734375 -0.625 2.203125zm9.317871 -6.046875l0 -2.40625l2.609375 0l0 2.40625l-2.609375 0zm0 11.1875l0 -9.859375l2.609375 0l0 9.859375l-2.609375 0zm14.152069 0l-2.609375 0l0 -5.03125q0 -1.59375 -0.171875 -2.0625q-0.15625 -0.46875 -0.53125 -0.71875q-0.375 -0.265625 -0.9062805 -0.265625q-0.6875 0 -1.234375 0.375q-0.53125 0.359375 -0.734375 0.984375q-0.1875 0.609375 -0.1875 2.25l0 4.46875l-2.609375 0l0 -9.859375l2.421875 0l0 1.453125q1.296875 -1.671875 3.2500305 -1.671875q0.859375 0 1.578125 0.3125q0.71875 0.3125 1.078125 0.796875q0.359375 0.484375 0.5 1.09375q0.15625 0.609375 0.15625 1.75l0 6.125zm2.1928406 0.65625l2.96875 0.359375q0.078125 0.515625 0.34375 0.703125q0.375 0.28125 1.171875 0.28125q1.03125 0 1.53125 -0.296875q0.34375 -0.203125 0.515625 -0.65625q0.125 -0.328125 0.125 -1.203125l0 -1.4375q-1.171875 1.59375 -2.953125 1.59375q-1.984375 0 -3.140625 -1.671875q-0.90625 -1.328125 -0.90625 -3.3125q0 -2.46875 1.1875 -3.78125q1.1875 -1.3125 2.96875 -1.3125q1.828125 0 3.015625 1.609375l0 -1.390625l2.4375 0l0 8.84375q0 1.75 -0.296875 2.609375q-0.28125 0.859375 -0.796875 1.34375q-0.515625 0.5 -1.390625 0.78125q-0.859375 0.28125 -2.1875 0.28125q-2.515625 0 -3.5625 -0.859375q-1.046875 -0.859375 -1.046875 -2.171875q0 -0.140625 0.015625 -0.3125zm2.328125 -5.78125q0 1.5625 0.609375 2.296875q0.609375 0.71875 1.5 0.71875q0.953125 0 1.609375 -0.734375q0.65625 -0.75 0.65625 -2.21875q0 -1.53125 -0.640625 -2.265625q-0.625 -0.75 -1.578125 -0.75q-0.9375 0 -1.546875 0.734375q-0.609375 0.71875 -0.609375 2.21875z" fill-rule="nonzero"></path><path fill="#e5373a" d="m41.272964 125.049866l374.42517 0l0 92.12599l-374.42517 0z" fill-rule="nonzero"></path><path fill="#ffffff" d="m178.036 178.03285l0 -13.59375l2.71875 0l3.21875 9.625q0.4375 1.34375 0.640625 2.015625q0.234375 -0.75 0.734375 -2.1875l3.25 -9.453125l2.421875 0l0 13.59375l-1.734375 0l0 -11.390625l-3.953125 11.390625l-1.625 0l-3.9375 -11.578125l0 11.578125l-1.734375 0zm21.822052 -1.21875q-0.9375 0.796875 -1.796875 1.125q-0.859375 0.3125 -1.84375 0.3125q-1.609375 0 -2.484375 -0.78125q-0.875 -0.796875 -0.875 -2.03125q0 -0.734375 0.328125 -1.328125q0.328125 -0.59375 0.859375 -0.953125q0.53125 -0.359375 1.203125 -0.546875q0.5 -0.140625 1.484375 -0.25q2.03125 -0.25 2.984375 -0.578125q0 -0.34375 0 -0.4375q0 -1.015625 -0.46875 -1.4375q-0.640625 -0.5625 -1.90625 -0.5625q-1.171875 0 -1.734375 0.40625q-0.5625 0.40625 -0.828125 1.46875l-1.640625 -0.234375q0.234375 -1.046875 0.734375 -1.6875q0.515625 -0.640625 1.46875 -0.984375q0.96875 -0.359375 2.25 -0.359375q1.265625 0 2.046875 0.296875q0.78125 0.296875 1.15625 0.75q0.375 0.453125 0.515625 1.140625q0.09375 0.421875 0.09375 1.53125l0 2.234375q0 2.328125 0.09375 2.953125q0.109375 0.609375 0.4375 1.171875l-1.75 0q-0.265625 -0.515625 -0.328125 -1.21875zm-0.140625 -3.71875q-0.90625 0.359375 -2.734375 0.625q-1.03125 0.140625 -1.453125 0.328125q-0.421875 0.1875 -0.65625 0.546875q-0.234375 0.359375 -0.234375 0.796875q0 0.671875 0.5 1.125q0.515625 0.4375 1.484375 0.4375q0.96875 0 1.71875 -0.421875q0.75 -0.4375 1.109375 -1.15625q0.265625 -0.578125 0.265625 -1.671875l0 -0.609375zm4.094467 -6.75l0 -1.90625l1.671875 0l0 1.90625l-1.671875 0zm0 11.6875l0 -9.859375l1.671875 0l0 9.859375l-1.671875 0zm4.129196 0l0 -9.859375l1.5 0l0 1.40625q1.09375 -1.625 3.140625 -1.625q0.890625 0 1.640625 0.328125q0.75 0.3125 1.109375 0.84375q0.375 0.515625 0.53125 1.21875q0.09375 0.46875 0.09375 1.625l0 6.0625l-1.671875 0l0 -6.0q0 -1.015625 -0.203125 -1.515625q-0.1875 -0.515625 -0.6875 -0.8125q-0.5 -0.296875 -1.171875 -0.296875q-1.0625 0 -1.84375 0.671875q-0.765625 0.671875 -0.765625 2.578125l0 5.375l-1.671875 0zm15.699646 0l0 -13.59375l5.109375 0q1.546875 0 2.484375 0.40625q0.953125 0.40625 1.484375 1.265625q0.53125 0.859375 0.53125 1.796875q0 0.875 -0.46875 1.65625q-0.46875 0.765625 -1.4375 1.234375q1.234375 0.359375 1.890625 1.234375q0.671875 0.875 0.671875 2.0625q0 0.953125 -0.40625 1.78125q-0.390625 0.8125 -0.984375 1.265625q-0.59375 0.4375 -1.5 0.671875q-0.890625 0.21875 -2.1875 0.21875l-5.1875 0zm1.796875 -7.890625l2.9375 0q1.203125 0 1.71875 -0.15625q0.6875 -0.203125 1.03125 -0.671875q0.359375 -0.46875 0.359375 -1.1875q0 -0.671875 -0.328125 -1.1875q-0.328125 -0.515625 -0.9375 -0.703125q-0.59375 -0.203125 -2.0625 -0.203125l-2.71875 0l0 4.109375zm0 6.28125l3.390625 0q0.875 0 1.21875 -0.0625q0.625 -0.109375 1.046875 -0.359375q0.421875 -0.265625 0.6875 -0.765625q0.265625 -0.5 0.265625 -1.140625q0 -0.765625 -0.390625 -1.328125q-0.390625 -0.5625 -1.078125 -0.78125q-0.6875 -0.234375 -1.984375 -0.234375l-3.15625 0l0 4.671875zm16.959198 1.609375l0 -1.453125q-1.140625 1.671875 -3.125 1.671875q-0.859375 0 -1.625 -0.328125q-0.75 -0.34375 -1.125 -0.84375q-0.359375 -0.5 -0.515625 -1.234375q-0.09375 -0.5 -0.09375 -1.5625l0 -6.109375l1.671875 0l0 5.46875q0 1.3125 0.09375 1.765625q0.15625 0.65625 0.671875 1.03125q0.515625 0.375 1.265625 0.375q0.75 0 1.40625 -0.375q0.65625 -0.390625 0.921875 -1.046875q0.28125 -0.671875 0.28125 -1.9375l0 -5.28125l1.671875 0l0 9.859375l-1.5 0zm3.9225922 0l0 -9.859375l1.5 0l0 1.40625q1.09375 -1.625 3.140625 -1.625q0.890625 0 1.640625 0.328125q0.75 0.3125 1.109375 0.84375q0.375 0.515625 0.53125 1.21875q0.09375 0.46875 0.09375 1.625l0 6.0625l-1.671875 0l0 -6.0q0 -1.015625 -0.203125 -1.515625q-0.1875 -0.515625 -0.6875 -0.8125q-0.5 -0.296875 -1.171875 -0.296875q-1.0625 0 -1.84375 0.671875q-0.765625 0.671875 -0.765625 2.578125l0 5.375l-1.671875 0zm16.766357 0l0 -1.25q-0.9375 1.46875 -2.75 1.46875q-1.171875 0 -2.171875 -0.640625q-0.984375 -0.65625 -1.53125 -1.8125q-0.53125 -1.171875 -0.53125 -2.6875q0 -1.46875 0.484375 -2.671875q0.5 -1.203125 1.46875 -1.84375q0.984375 -0.640625 2.203125 -0.640625q0.890625 0 1.578125 0.375q0.703125 0.375 1.140625 0.984375l0 -4.875l1.65625 0l0 13.59375l-1.546875 0zm-5.28125 -4.921875q0 1.890625 0.796875 2.828125q0.8125 0.9375 1.890625 0.9375q1.09375 0 1.859375 -0.890625q0.765625 -0.890625 0.765625 -2.734375q0 -2.015625 -0.78125 -2.953125q-0.78125 -0.953125 -1.921875 -0.953125q-1.109375 0 -1.859375 0.90625q-0.75 0.90625 -0.75 2.859375zm9.235077 4.921875l0 -13.59375l1.671875 0l0 13.59375l-1.671875 0zm10.926086 -3.171875l1.71875 0.21875q-0.40625 1.5 -1.515625 2.34375q-1.09375 0.828125 -2.8125 0.828125q-2.15625 0 -3.421875 -1.328125q-1.265625 -1.328125 -1.265625 -3.734375q0 -2.484375 1.265625 -3.859375q1.28125 -1.375 3.328125 -1.375q1.984375 0 3.234375 1.34375q1.25 1.34375 1.25 3.796875q0 0.140625 -0.015625 0.4375l-7.34375 0q0.09375 1.625 0.921875 2.484375q0.828125 0.859375 2.0625 0.859375q0.90625 0 1.546875 -0.46875q0.65625 -0.484375 1.046875 -1.546875zm-5.484375 -2.703125l5.5 0q-0.109375 -1.234375 -0.625 -1.859375q-0.796875 -0.96875 -2.078125 -0.96875q-1.140625 0 -1.9375 0.78125q-0.78125 0.765625 -0.859375 2.046875z" fill-rule="nonzero"></path><path fill="#442d4f" d="m657.3123 125.049866l130.89764 0l0 92.12599l-130.89764 0z" fill-rule="nonzero"></path><path fill="#ffffff" d="m670.7291 167.03285l0 -13.59375l1.796875 0l0 11.984375l6.703125 0l0 1.609375l-8.5 0zm16.672607 -1.21875q-0.9375 0.796875 -1.796875 1.125q-0.859375 0.3125 -1.84375 0.3125q-1.609375 0 -2.484375 -0.78125q-0.875 -0.796875 -0.875 -2.03125q0 -0.734375 0.328125 -1.328125q0.328125 -0.59375 0.859375 -0.953125q0.53125 -0.359375 1.203125 -0.546875q0.5 -0.140625 1.484375 -0.25q2.03125 -0.25 2.984375 -0.578125q0 -0.34375 0 -0.4375q0 -1.015625 -0.46875 -1.4375q-0.640625 -0.5625 -1.90625 -0.5625q-1.171875 0 -1.734375 0.40625q-0.5625 0.40625 -0.828125 1.46875l-1.640625 -0.234375q0.234375 -1.046875 0.734375 -1.6875q0.515625 -0.640625 1.46875 -0.984375q0.96875 -0.359375 2.25 -0.359375q1.265625 0 2.046875 0.296875q0.78125 0.296875 1.15625 0.75q0.375 0.453125 0.515625 1.140625q0.09375 0.421875 0.09375 1.53125l0 2.234375q0 2.328125 0.09375 2.953125q0.109375 0.609375 0.4375 1.171875l-1.75 0q-0.265625 -0.515625 -0.328125 -1.21875zm-0.140625 -3.71875q-0.90625 0.359375 -2.734375 0.625q-1.03125 0.140625 -1.453125 0.328125q-0.421875 0.1875 -0.65625 0.546875q-0.234375 0.359375 -0.234375 0.796875q0 0.671875 0.5 1.125q0.515625 0.4375 1.484375 0.4375q0.96875 0 1.71875 -0.421875q0.75 -0.4375 1.109375 -1.15625q0.265625 -0.578125 0.265625 -1.671875l0 -0.609375zm3.2038574 4.9375l0 -1.359375l6.265625 -7.1875q-1.0625 0.046875 -1.875 0.046875l-4.015625 0l0 -1.359375l8.046875 0l0 1.109375l-5.34375 6.25l-1.015625 1.140625q1.109375 -0.078125 2.09375 -0.078125l4.5625 0l0 1.4375l-8.71875 0zm10.125 3.796875l-0.171875 -1.5625q0.546875 0.140625 0.953125 0.140625q0.546875 0 0.875 -0.1875q0.34375 -0.1875 0.5625 -0.515625q0.15625 -0.25 0.5 -1.25q0.046875 -0.140625 0.15625 -0.40625l-3.734375 -9.875l1.796875 0l2.046875 5.71875q0.40625 1.078125 0.71875 2.28125q0.28125 -1.15625 0.6875 -2.25l2.09375 -5.75l1.671875 0l-3.75 10.03125q-0.59375 1.625 -0.9375 2.234375q-0.4375 0.828125 -1.015625 1.203125q-0.578125 0.390625 -1.375 0.390625q-0.484375 0 -1.078125 -0.203125zm14.730164 -3.796875l0 -13.59375l1.796875 0l0 11.984375l6.703125 0l0 1.609375l-8.5 0zm9.610107 -4.921875q0 -2.734375 1.53125 -4.0625q1.265625 -1.09375 3.09375 -1.09375q2.03125 0 3.3125 1.34375q1.296875 1.328125 1.296875 3.671875q0 1.90625 -0.578125 3.0q-0.5625 1.078125 -1.65625 1.6875q-1.078125 0.59375 -2.375 0.59375q-2.0625 0 -3.34375 -1.328125q-1.28125 -1.328125 -1.28125 -3.8125zm1.71875 0q0 1.890625 0.828125 2.828125q0.828125 0.9375 2.078125 0.9375q1.25 0 2.0625 -0.9375q0.828125 -0.953125 0.828125 -2.890625q0 -1.828125 -0.828125 -2.765625q-0.828125 -0.9375 -2.0625 -0.9375q-1.25 0 -2.078125 0.9375q-0.828125 0.9375 -0.828125 2.828125zm15.719421 3.703125q-0.9375 0.796875 -1.796875 1.125q-0.859375 0.3125 -1.84375 0.3125q-1.609375 0 -2.484375 -0.78125q-0.875 -0.796875 -0.875 -2.03125q0 -0.734375 0.328125 -1.328125q0.328125 -0.59375 0.859375 -0.953125q0.53125 -0.359375 1.203125 -0.546875q0.5 -0.140625 1.484375 -0.25q2.03125 -0.25 2.984375 -0.578125q0 -0.34375 0 -0.4375q0 -1.015625 -0.46875 -1.4375q-0.640625 -0.5625 -1.90625 -0.5625q-1.171875 0 -1.734375 0.40625q-0.5625 0.40625 -0.828125 1.46875l-1.640625 -0.234375q0.234375 -1.046875 0.734375 -1.6875q0.515625 -0.640625 1.46875 -0.984375q0.96875 -0.359375 2.25 -0.359375q1.265625 0 2.046875 0.296875q0.78125 0.296875 1.15625 0.75q0.375 0.453125 0.515625 1.140625q0.09375 0.421875 0.09375 1.53125l0 2.234375q0 2.328125 0.09375 2.953125q0.109375 0.609375 0.4375 1.171875l-1.75 0q-0.265625 -0.515625 -0.328125 -1.21875zm-0.140625 -3.71875q-0.90625 0.359375 -2.734375 0.625q-1.03125 0.140625 -1.453125 0.328125q-0.421875 0.1875 -0.65625 0.546875q-0.234375 0.359375 -0.234375 0.796875q0 0.671875 0.5 1.125q0.515625 0.4375 1.484375 0.4375q0.96875 0 1.71875 -0.421875q0.75 -0.4375 1.109375 -1.15625q0.265625 -0.578125 0.265625 -1.671875l0 -0.609375zm10.469482 4.9375l0 -1.25q-0.9375 1.46875 -2.75 1.46875q-1.171875 0 -2.171875 -0.640625q-0.984375 -0.65625 -1.53125 -1.8125q-0.53125 -1.171875 -0.53125 -2.6875q0 -1.46875 0.484375 -2.671875q0.5 -1.203125 1.46875 -1.84375q0.984375 -0.640625 2.203125 -0.640625q0.890625 0 1.578125 0.375q0.703125 0.375 1.140625 0.984375l0 -4.875l1.65625 0l0 13.59375l-1.546875 0zm-5.28125 -4.921875q0 1.890625 0.796875 2.828125q0.8125 0.9375 1.890625 0.9375q1.09375 0 1.859375 -0.890625q0.765625 -0.890625 0.765625 -2.734375q0 -2.015625 -0.78125 -2.953125q-0.78125 -0.953125 -1.921875 -0.953125q-1.109375 0 -1.859375 0.90625q-0.75 0.90625 -0.75 2.859375zm16.016357 1.75l1.71875 0.21875q-0.40625 1.5 -1.515625 2.34375q-1.09375 0.828125 -2.8125 0.828125q-2.15625 0 -3.421875 -1.328125q-1.265625 -1.328125 -1.265625 -3.734375q0 -2.484375 1.265625 -3.859375q1.28125 -1.375 3.328125 -1.375q1.984375 0 3.234375 1.34375q1.25 1.34375 1.25 3.796875q0 0.140625 -0.015625 0.4375l-7.34375 0q0.09375 1.625 0.921875 2.484375q0.828125 0.859375 2.0625 0.859375q0.90625 0 1.546875 -0.46875q0.65625 -0.484375 1.046875 -1.546875zm-5.484375 -2.703125l5.5 0q-0.109375 -1.234375 -0.625 -1.859375q-0.796875 -0.96875 -2.078125 -0.96875q-1.140625 0 -1.9375 0.78125q-0.78125 0.765625 -0.859375 2.046875zm15.500732 5.875l0 -1.25q-0.9375 1.46875 -2.75 1.46875q-1.171875 0 -2.171875 -0.640625q-0.984375 -0.65625 -1.53125 -1.8125q-0.53125 -1.171875 -0.53125 -2.6875q0 -1.46875 0.484375 -2.671875q0.5 -1.203125 1.46875 -1.84375q0.984375 -0.640625 2.203125 -0.640625q0.890625 0 1.578125 0.375q0.703125 0.375 1.140625 0.984375l0 -4.875l1.65625 0l0 13.59375l-1.546875 0zm-5.28125 -4.921875q0 1.890625 0.796875 2.828125q0.8125 0.9375 1.890625 0.9375q1.09375 0 1.859375 -0.890625q0.765625 -0.890625 0.765625 -2.734375q0 -2.015625 -0.78125 -2.953125q-0.78125 -0.953125 -1.921875 -0.953125q-1.109375 0 -1.859375 0.90625q-0.75 0.90625 -0.75 2.859375z" fill-rule="nonzero"></path><path fill="#ffffff" d="m695.10614 189.03285l0 -13.59375l5.109375 0q1.546875 0 2.484375 0.40625q0.953125 0.40625 1.484375 1.265625q0.53125 0.859375 0.53125 1.796875q0 0.875 -0.46875 1.65625q-0.46875 0.765625 -1.4375 1.234375q1.234375 0.359375 1.890625 1.234375q0.671875 0.875 0.671875 2.0625q0 0.953125 -0.40625 1.78125q-0.390625 0.8125 -0.984375 1.265625q-0.59375 0.4375 -1.5 0.671875q-0.890625 0.21875 -2.1875 0.21875l-5.1875 0zm1.796875 -7.890625l2.9375 0q1.203125 0 1.71875 -0.15625q0.6875 -0.203125 1.03125 -0.671875q0.359375 -0.46875 0.359375 -1.1875q0 -0.671875 -0.328125 -1.1875q-0.328125 -0.515625 -0.9375 -0.703125q-0.59375 -0.203125 -2.0625 -0.203125l-2.71875 0l0 4.109375zm0 6.28125l3.390625 0q0.875 0 1.21875 -0.0625q0.625 -0.109375 1.046875 -0.359375q0.421875 -0.265625 0.6875 -0.765625q0.265625 -0.5 0.265625 -1.140625q0 -0.765625 -0.390625 -1.328125q-0.390625 -0.5625 -1.078125 -0.78125q-0.6875 -0.234375 -1.984375 -0.234375l-3.15625 0l0 4.671875zm16.959229 1.609375l0 -1.453125q-1.140625 1.671875 -3.125 1.671875q-0.859375 0 -1.625 -0.328125q-0.75 -0.34375 -1.125 -0.84375q-0.359375 -0.5 -0.515625 -1.234375q-0.09375 -0.5 -0.09375 -1.5625l0 -6.109375l1.671875 0l0 5.46875q0 1.3125 0.09375 1.765625q0.15625 0.65625 0.671875 1.03125q0.515625 0.375 1.265625 0.375q0.75 0 1.40625 -0.375q0.65625 -0.390625 0.921875 -1.046875q0.28125 -0.671875 0.28125 -1.9375l0 -5.28125l1.671875 0l0 9.859375l-1.5 0zm3.9225464 0l0 -9.859375l1.5 0l0 1.40625q1.09375 -1.625 3.140625 -1.625q0.890625 0 1.640625 0.328125q0.75 0.3125 1.109375 0.84375q0.375 0.515625 0.53125 1.21875q0.09375 0.46875 0.09375 1.625l0 6.0625l-1.671875 0l0 -6.0q0 -1.015625 -0.203125 -1.515625q-0.1875 -0.515625 -0.6875 -0.8125q-0.5 -0.296875 -1.171875 -0.296875q-1.0625 0 -1.84375 0.671875q-0.765625 0.671875 -0.765625 2.578125l0 5.375l-1.671875 0zm16.766357 0l0 -1.25q-0.9375 1.46875 -2.75 1.46875q-1.171875 0 -2.171875 -0.640625q-0.984375 -0.65625 -1.53125 -1.8125q-0.53125 -1.171875 -0.53125 -2.6875q0 -1.46875 0.484375 -2.671875q0.5 -1.203125 1.46875 -1.84375q0.984375 -0.640625 2.203125 -0.640625q0.890625 0 1.578125 0.375q0.703125 0.375 1.140625 0.984375l0 -4.875l1.65625 0l0 13.59375l-1.546875 0zm-5.28125 -4.921875q0 1.890625 0.796875 2.828125q0.8125 0.9375 1.890625 0.9375q1.09375 0 1.859375 -0.890625q0.765625 -0.890625 0.765625 -2.734375q0 -2.015625 -0.78125 -2.953125q-0.78125 -0.953125 -1.921875 -0.953125q-1.109375 0 -1.859375 0.90625q-0.75 0.90625 -0.75 2.859375zm9.235107 4.921875l0 -13.59375l1.671875 0l0 13.59375l-1.671875 0zm10.926086 -3.171875l1.71875 0.21875q-0.40625 1.5 -1.515625 2.34375q-1.09375 0.828125 -2.8125 0.828125q-2.15625 0 -3.421875 -1.328125q-1.265625 -1.328125 -1.265625 -3.734375q0 -2.484375 1.265625 -3.859375q1.28125 -1.375 3.328125 -1.375q1.984375 0 3.234375 1.34375q1.25 1.34375 1.25 3.796875q0 0.140625 -0.015625 0.4375l-7.34375 0q0.09375 1.625 0.921875 2.484375q0.828125 0.859375 2.0625 0.859375q0.90625 0 1.546875 -0.46875q0.65625 -0.484375 1.046875 -1.546875zm-5.484375 -2.703125l5.5 0q-0.109375 -1.234375 -0.625 -1.859375q-0.796875 -0.96875 -2.078125 -0.96875q-1.140625 0 -1.9375 0.78125q-0.78125 0.765625 -0.859375 2.046875z" fill-rule="nonzero"></path><path fill="#000000" fill-opacity="0.0" d="m457.09973 169.90027l162.20471 0" fill-rule="nonzero"></path><path stroke="#000000" stroke-width="3.0" stroke-linejoin="round" stroke-linecap="butt" stroke-dasharray="3.0,9.0" d="m457.09973 169.90027l162.20471 0" fill-rule="nonzero"></path><path fill="#000000" fill-opacity="0.0" d="m30.286089 13.144357l235.11812 0l0 44.787403l-235.11812 0z" fill-rule="nonzero"></path><path fill="#000000" d="m40.69234 40.064354l0 -13.593748l2.671875 0l5.578125 9.078123l0 -9.078123l2.546875 0l0 13.593748l-2.765625 0l-5.46875 -8.874998l0 8.874998l-2.5625 0zm12.832321 -5.0625q0 -1.296875 0.640625 -2.515625q0.640625 -1.2187481 1.8125 -1.8593731q1.171875 -0.640625 2.609375 -0.640625q2.25 0 3.671875 1.453125q1.421875 1.4531231 1.421875 3.671873q0 2.234375 -1.4375 3.703125q-1.4375 1.46875 -3.625 1.46875q-1.359375 0 -2.59375 -0.609375q-1.21875 -0.609375 -1.859375 -1.796875q-0.640625 -1.1875 -0.640625 -2.875zm2.671875 0.140625q0 1.46875 0.6875 2.25q0.703125 0.765625 1.71875 0.765625q1.015625 0 1.703125 -0.765625q0.703125 -0.78125 0.703125 -2.265625q0 -1.453125 -0.703125 -2.234375q-0.6875 -0.78125 -1.703125 -0.78125q-1.015625 0 -1.71875 0.78125q-0.6875 0.78125 -0.6875 2.25zm11.817852 4.921875l-2.609375 0l0 -9.859373l2.421875 0l0 1.40625q0.625 -0.984375 1.109375 -1.296875q0.5 -0.328125 1.140625 -0.328125q0.890625 0 1.71875 0.5l-0.8125 2.265623q-0.65625 -0.421875 -1.21875 -0.421875q-0.546875 0 -0.9375 0.296875q-0.375 0.296875 -0.59375 1.09375q-0.21875 0.78125 -0.21875 3.296875l0 3.046875zm4.572769 -9.859373l2.40625 0l0 1.359375q1.28125 -1.578125 3.0625 -1.578125q0.953125 0 1.640625 0.390625q0.703125 0.390625 1.140625 1.1875q0.65625 -0.796875 1.40625 -1.1875q0.75 -0.390625 1.609375 -0.390625q1.078125 0 1.828125 0.453125q0.75 0.4375 1.125 1.28125q0.265625 0.6406231 0.265625 2.046873l0 6.296875l-2.609375 0l0 -5.625q0 -1.46875 -0.265625 -1.90625q-0.359375 -0.5468731 -1.109375 -0.5468731q-0.546875 0 -1.03125 0.3437481q-0.484375 0.328125 -0.703125 0.96875q-0.203125 0.640625 -0.203125 2.03125l0 4.734375l-2.609375 0l0 -5.40625q0 -1.4375 -0.140625 -1.84375q-0.140625 -0.421875 -0.4375 -0.625q-0.28125 -0.2031231 -0.78125 -0.2031231q-0.609375 0 -1.09375 0.3281231q-0.484375 0.3125 -0.6875 0.9375q-0.203125 0.609375 -0.203125 2.03125l0 4.78125l-2.609375 0l0 -9.859373zm18.72902 3.015623l-2.359375 -0.4375q0.390625 -1.4218731 1.359375 -2.109373q0.984375 -0.6875 2.90625 -0.6875q1.734375 0 2.59375 0.421875q0.859375 0.40625 1.203125 1.046875q0.34375 0.6249981 0.34375 2.328123l-0.03125 3.046875q0 1.296875 0.125 1.921875q0.125 0.609375 0.46875 1.3125l-2.578125 0q-0.09375 -0.265625 -0.25 -0.765625q-0.0625 -0.234375 -0.09375 -0.3125q-0.65625 0.65625 -1.421875 0.984375q-0.765625 0.3125 -1.625 0.3125q-1.515625 0 -2.40625 -0.8125q-0.875 -0.828125 -0.875 -2.09375q0 -0.84375 0.390625 -1.484375q0.40625 -0.65625 1.125 -1.0q0.71875 -0.359375 2.078125 -0.625q1.828125 -0.328125 2.53125 -0.625l0 -0.265625q0 -0.75 -0.375 -1.0625q-0.359375 -0.3281231 -1.390625 -0.3281231q-0.703125 0 -1.09375 0.2812481q-0.390625 0.265625 -0.625 0.953125zm3.484375 2.109375q-0.5 0.171875 -1.59375 0.40625q-1.078125 0.234375 -1.40625 0.453125q-0.515625 0.359375 -0.515625 0.921875q0 0.546875 0.40625 0.953125q0.40625 0.390625 1.046875 0.390625q0.703125 0 1.34375 -0.46875q0.46875 -0.359375 0.625 -0.859375q0.09375 -0.34375 0.09375 -1.28125l0 -0.515625zm4.938217 4.734375l0 -13.593748l2.609375 0l0 13.593748l-2.609375 0zm10.460358 0l0 -13.484373l2.75 0l0 11.187498l6.828125 0l0 2.296875l-9.578125 0zm13.255356 -6.84375l-2.359375 -0.4375q0.390625 -1.4218731 1.359375 -2.109373q0.984375 -0.6875 2.90625 -0.6875q1.734375 0 2.59375 0.421875q0.859375 0.40625 1.203125 1.046875q0.34375 0.6249981 0.34375 2.328123l-0.03125 3.046875q0 1.296875 0.125 1.921875q0.125 0.609375 0.46875 1.3125l-2.578125 0q-0.09375 -0.265625 -0.25 -0.765625q-0.0625 -0.234375 -0.09375 -0.3125q-0.65625 0.65625 -1.421875 0.984375q-0.765625 0.3125 -1.625 0.3125q-1.515625 0 -2.40625 -0.8125q-0.875 -0.828125 -0.875 -2.09375q0 -0.84375 0.390625 -1.484375q0.40625 -0.65625 1.125 -1.0q0.71875 -0.359375 2.078125 -0.625q1.828125 -0.328125 2.53125 -0.625l0 -0.265625q0 -0.75 -0.375 -1.0625q-0.359375 -0.3281231 -1.390625 -0.3281231q-0.703125 0 -1.09375 0.2812481q-0.390625 0.265625 -0.625 0.953125zm3.484375 2.109375q-0.5 0.171875 -1.59375 0.40625q-1.078125 0.234375 -1.40625 0.453125q-0.515625 0.359375 -0.515625 0.921875q0 0.546875 0.40625 0.953125q0.40625 0.390625 1.046875 0.390625q0.703125 0 1.34375 -0.46875q0.46875 -0.359375 0.625 -0.859375q0.09375 -0.34375 0.09375 -1.28125l0 -0.515625zm3.8913422 4.734375l0 -2.03125l3.703125 -4.234375q0.90625 -1.046875 1.34375 -1.484375q-0.453125 0.03125 -1.203125 0.046875l-3.484375 0.015625l0 -2.171873l8.15625 0l0 1.8593731l-3.765625 4.328125l-1.328125 1.4375q1.078125 -0.0625 1.34375 -0.0625l4.03125 0l0 2.296875l-8.796875 0zm9.140625 -9.859373l2.78125 0l2.359375 6.999998l2.296875 -6.999998l2.703125 0l-3.484375 9.484373l-0.625 1.71875q-0.34375 0.859375 -0.65625 1.3125q-0.296875 0.46875 -0.703125 0.75q-0.40625 0.28125 -1.0 0.4375q-0.59375 0.15625 -1.328125 0.15625q-0.75 0 -1.46875 -0.15625l-0.234375 -2.046875q0.609375 0.125 1.09375 0.125q0.921875 0 1.34375 -0.53125q0.4375 -0.53125 0.671875 -1.359375l-3.75 -9.890623zm16.887146 9.859373l0 -13.484373l2.75 0l0 11.187498l6.828125 0l0 2.296875l-9.578125 0zm10.708481 -5.0625q0 -1.296875 0.640625 -2.515625q0.640625 -1.2187481 1.8125 -1.8593731q1.171875 -0.640625 2.609375 -0.640625q2.25 0 3.671875 1.453125q1.421875 1.4531231 1.421875 3.671873q0 2.234375 -1.4375 3.703125q-1.4375 1.46875 -3.625 1.46875q-1.359375 0 -2.59375 -0.609375q-1.21875 -0.609375 -1.859375 -1.796875q-0.640625 -1.1875 -0.640625 -2.875zm2.671875 0.140625q0 1.46875 0.6875 2.25q0.703125 0.765625 1.71875 0.765625q1.015625 0 1.703125 -0.765625q0.703125 -0.78125 0.703125 -2.265625q0 -1.453125 -0.703125 -2.234375q-0.6875 -0.78125 -1.703125 -0.78125q-1.015625 0 -1.71875 0.78125q-0.6875 0.78125 -0.6875 2.25zm11.270981 -1.921875l-2.359375 -0.4375q0.390625 -1.4218731 1.359375 -2.109373q0.984375 -0.6875 2.90625 -0.6875q1.734375 0 2.59375 0.421875q0.859375 0.40625 1.203125 1.046875q0.34375 0.6249981 0.34375 2.328123l-0.03125 3.046875q0 1.296875 0.125 1.921875q0.125 0.609375 0.46875 1.3125l-2.578125 0q-0.09375 -0.265625 -0.25 -0.765625q-0.0625 -0.234375 -0.09375 -0.3125q-0.65625 0.65625 -1.421875 0.984375q-0.765625 0.3125 -1.625 0.3125q-1.515625 0 -2.40625 -0.8125q-0.875 -0.828125 -0.875 -2.09375q0 -0.84375 0.390625 -1.484375q0.40625 -0.65625 1.125 -1.0q0.71875 -0.359375 2.078125 -0.625q1.828125 -0.328125 2.53125 -0.625l0 -0.265625q0 -0.75 -0.375 -1.0625q-0.359375 -0.3281231 -1.390625 -0.3281231q-0.703125 0 -1.09375 0.2812481q-0.390625 0.265625 -0.625 0.953125zm3.484375 2.109375q-0.5 0.171875 -1.59375 0.40625q-1.078125 0.234375 -1.40625 0.453125q-0.515625 0.359375 -0.515625 0.921875q0 0.546875 0.40625 0.953125q0.40625 0.390625 1.046875 0.390625q0.703125 0 1.34375 -0.46875q0.46875 -0.359375 0.625 -0.859375q0.09375 -0.34375 0.09375 -1.28125l0 -0.515625zm13.985092 4.734375l-2.421875 0l0 -1.453125q-0.609375 0.84375 -1.4375 1.265625q-0.8125 0.40625 -1.640625 0.40625q-1.703125 0 -2.921875 -1.359375q-1.203125 -1.375 -1.203125 -3.828125q0 -2.5 1.171875 -3.796873q1.1875 -1.3125 2.984375 -1.3125q1.65625 0 2.859375 1.375l0 -4.890625l2.609375 0l0 13.593748zm-6.96875 -5.140625q0 1.578125 0.4375 2.28125q0.640625 1.015625 1.765625 1.015625q0.90625 0 1.53125 -0.765625q0.625 -0.765625 0.625 -2.28125q0 -1.703125 -0.609375 -2.4375q-0.609375 -0.7499981 -1.5625 -0.7499981q-0.9375 0 -1.5625 0.7343731q-0.625 0.734375 -0.625 2.203125zm9.317856 -6.046873l0 -2.40625l2.609375 0l0 2.40625l-2.609375 0zm0 11.187498l0 -9.859373l2.609375 0l0 9.859373l-2.609375 0zm14.152054 0l-2.609375 0l0 -5.03125q0 -1.59375 -0.171875 -2.0625q-0.15625 -0.46875 -0.53125 -0.71875q-0.375 -0.2656231 -0.90625 -0.2656231q-0.6875 0 -1.234375 0.3749981q-0.53125 0.359375 -0.734375 0.984375q-0.1875 0.609375 -0.1875 2.25l0 4.46875l-2.609375 0l0 -9.859373l2.421875 0l0 1.453125q1.296875 -1.671875 3.25 -1.671875q0.859375 0 1.578125 0.3125q0.71875 0.3125 1.078125 0.796875q0.359375 0.484375 0.5 1.0937481q0.15625 0.609375 0.15625 1.75l0 6.125zm2.1928558 0.65625l2.96875 0.359375q0.078125 0.515625 0.34375 0.703125q0.375 0.28125 1.171875 0.28125q1.03125 0 1.53125 -0.296875q0.34375 -0.203125 0.515625 -0.65625q0.125 -0.328125 0.125 -1.203125l0 -1.4375q-1.171875 1.59375 -2.953125 1.59375q-1.984375 0 -3.140625 -1.671875q-0.90625 -1.328125 -0.90625 -3.3125q0 -2.46875 1.1875 -3.781248q1.1875 -1.3125 2.96875 -1.3125q1.828125 0 3.015625 1.609375l0 -1.390625l2.4375 0l0 8.843748q0 1.75 -0.296875 2.609375q-0.28125 0.859375 -0.796875 1.34375q-0.515625 0.5 -1.390625 0.78125q-0.859375 0.28125 -2.1875 0.28125q-2.515625 0 -3.5625 -0.859375q-1.046875 -0.859375 -1.046875 -2.171875q0 -0.140625 0.015625 -0.3125zm2.328125 -5.78125q0 1.5625 0.609375 2.296875q0.609375 0.71875 1.5 0.71875q0.953125 0 1.609375 -0.734375q0.65625 -0.75 0.65625 -2.21875q0 -1.53125 -0.640625 -2.265625q-0.625 -0.7499981 -1.578125 -0.7499981q-0.9375 0 -1.546875 0.7343731q-0.609375 0.71875 -0.609375 2.21875z" fill-rule="nonzero"></path><path fill="#000000" fill-opacity="0.0" d="m7.569554 55.989502l71.685036 0l0 39.716537l-71.685036 0z" fill-rule="nonzero"></path><path fill="#000000" d="m24.051264 82.9095l0 -13.59375l1.796875 0l0 11.984375l6.703127 0l0 1.609375l-8.500002 0zm9.610094 -4.921875q0 -2.734375 1.53125 -4.0625q1.265625 -1.09375 3.09375 -1.09375q2.03125 0 3.3125 1.34375q1.296875 1.328125 1.296875 3.671875q0 1.90625 -0.578125 3.0q-0.5625 1.078125 -1.65625 1.6875q-1.078125 0.59375 -2.375 0.59375q-2.0625 0 -3.34375 -1.328125q-1.28125 -1.328125 -1.28125 -3.8125zm1.71875 0q0 1.890625 0.828125 2.828125q0.828125 0.9375 2.078125 0.9375q1.25 0 2.0625 -0.9375q0.828125 -0.953125 0.828125 -2.890625q0 -1.828125 -0.828125 -2.765625q-0.828125 -0.9375 -2.0625 -0.9375q-1.25 0 -2.078125 0.9375q-0.828125 0.9375 -0.828125 2.828125zm15.719467 3.703125q-0.9375 0.796875 -1.796875 1.125q-0.859375 0.3125 -1.84375 0.3125q-1.609375 0 -2.484375 -0.78125q-0.875 -0.796875 -0.875 -2.03125q0 -0.734375 0.328125 -1.328125q0.328125 -0.59375 0.859375 -0.953125q0.53125 -0.359375 1.203125 -0.546875q0.5 -0.140625 1.484375 -0.25q2.03125 -0.25 2.984375 -0.578125q0 -0.34375 0 -0.4375q0 -1.015625 -0.46875 -1.4375q-0.640625 -0.5625 -1.90625 -0.5625q-1.171875 0 -1.734375 0.40625q-0.5625 0.40625 -0.828125 1.46875l-1.640625 -0.234375q0.234375 -1.046875 0.734375 -1.6875q0.515625 -0.640625 1.46875 -0.984375q0.96875 -0.359375 2.25 -0.359375q1.265625 0 2.046875 0.296875q0.78125 0.296875 1.15625 0.75q0.375 0.453125 0.515625 1.140625q0.09375 0.421875 0.09375 1.53125l0 2.234375q0 2.328125 0.09375 2.953125q0.109375 0.609375 0.4375 1.171875l-1.75 0q-0.265625 -0.515625 -0.328125 -1.21875zm-0.140625 -3.71875q-0.90625 0.359375 -2.734375 0.625q-1.03125 0.140625 -1.453125 0.328125q-0.421875 0.1875 -0.65625 0.546875q-0.234375 0.359375 -0.234375 0.796875q0 0.671875 0.5 1.125q0.515625 0.4375 1.484375 0.4375q0.96875 0 1.71875 -0.421875q0.75 -0.4375 1.109375 -1.15625q0.265625 -0.578125 0.265625 -1.671875l0 -0.609375zm10.469467 4.9375l0 -1.25q-0.9375 1.46875 -2.75 1.46875q-1.171875 0 -2.171875 -0.640625q-0.984375 -0.65625 -1.53125 -1.8125q-0.53125 -1.171875 -0.53125 -2.6875q0 -1.46875 0.484375 -2.671875q0.5 -1.203125 1.46875 -1.84375q0.984375 -0.640625 2.203125 -0.640625q0.890625 0 1.578125 0.375q0.703125 0.375 1.140625 0.984375l0 -4.875l1.65625 0l0 13.59375l-1.546875 0zm-5.28125 -4.921875q0 1.890625 0.796875 2.828125q0.8125 0.9375 1.890625 0.9375q1.09375 0 1.859375 -0.890625q0.765625 -0.890625 0.765625 -2.734375q0 -2.015625 -0.78125 -2.953125q-0.78125 -0.953125 -1.921875 -0.953125q-1.109375 0 -1.859375 0.90625q-0.75 0.90625 -0.75 2.859375z" fill-rule="nonzero"></path><path fill="#000000" fill-opacity="0.0" d="m41.272964 87.71654l0 31.275589" fill-rule="nonzero"></path><path stroke="#000000" stroke-width="1.0" stroke-linejoin="round" stroke-linecap="butt" d="m41.272964 87.71654l0 25.275589" fill-rule="evenodd"></path><path fill="#000000" stroke="#000000" stroke-width="1.0" stroke-linecap="butt" d="m39.621235 112.99213l1.6517296 4.5380936l1.6517334 -4.5380936z" fill-rule="evenodd"></path><path fill="#000000" fill-opacity="0.0" d="m373.8819 55.989502l75.212585 0l0 39.716537l-75.212585 0z" fill-rule="nonzero"></path><path fill="#000000" d="m386.02408 82.9095l0 -13.59375l6.03125 0q1.8125 0 2.75 0.359375q0.953125 0.359375 1.515625 1.296875q0.5625 0.921875 0.5625 2.046875q0 1.453125 -0.9375 2.453125q-0.921875 0.984375 -2.890625 1.25q0.71875 0.34375 1.09375 0.671875q0.78125 0.734375 1.484375 1.8125l2.375 3.703125l-2.265625 0l-1.796875 -2.828125q-0.796875 -1.21875 -1.3125 -1.875q-0.5 -0.65625 -0.90625 -0.90625q-0.40625 -0.265625 -0.8125 -0.359375q-0.3125 -0.078125 -1.015625 -0.078125l-2.078125 0l0 6.046875l-1.796875 0zm1.796875 -7.59375l3.859375 0q1.234375 0 1.921875 -0.25q0.703125 -0.265625 1.0625 -0.828125q0.375 -0.5625 0.375 -1.21875q0 -0.96875 -0.703125 -1.578125q-0.703125 -0.625 -2.21875 -0.625l-4.296875 0l0 4.5zm18.176086 4.421875l1.71875 0.21875q-0.40625 1.5 -1.515625 2.34375q-1.0937805 0.828125 -2.8125305 0.828125q-2.15625 0 -3.421875 -1.328125q-1.265625 -1.328125 -1.265625 -3.734375q0 -2.484375 1.265625 -3.859375q1.28125 -1.375 3.328125 -1.375q1.984375 0 3.2344055 1.34375q1.25 1.34375 1.25 3.796875q0 0.140625 -0.015625 0.4375l-7.3437805 0q0.09375 1.625 0.921875 2.484375q0.828125 0.859375 2.0625 0.859375q0.90625 0 1.546875 -0.46875q0.65625 -0.484375 1.0469055 -1.546875zm-5.4844055 -2.703125l5.5000305 0q-0.109375 -1.234375 -0.6250305 -1.859375q-0.796875 -0.96875 -2.078125 -0.96875q-1.140625 0 -1.9375 0.78125q-0.78125 0.765625 -0.859375 2.046875zm15.547607 4.65625q-0.9375 0.796875 -1.796875 1.125q-0.859375 0.3125 -1.84375 0.3125q-1.609375 0 -2.484375 -0.78125q-0.875 -0.796875 -0.875 -2.03125q0 -0.734375 0.328125 -1.328125q0.328125 -0.59375 0.859375 -0.953125q0.53125 -0.359375 1.203125 -0.546875q0.5 -0.140625 1.484375 -0.25q2.03125 -0.25 2.984375 -0.578125q0 -0.34375 0 -0.4375q0 -1.015625 -0.46875 -1.4375q-0.640625 -0.5625 -1.90625 -0.5625q-1.171875 0 -1.734375 0.40625q-0.5625 0.40625 -0.828125 1.46875l-1.640625 -0.234375q0.234375 -1.046875 0.734375 -1.6875q0.515625 -0.640625 1.46875 -0.984375q0.96875 -0.359375 2.25 -0.359375q1.265625 0 2.046875 0.296875q0.78125 0.296875 1.15625 0.75q0.375 0.453125 0.515625 1.140625q0.09375 0.421875 0.09375 1.53125l0 2.234375q0 2.328125 0.09375 2.953125q0.109375 0.609375 0.4375 1.171875l-1.75 0q-0.265625 -0.515625 -0.328125 -1.21875zm-0.140625 -3.71875q-0.90625 0.359375 -2.734375 0.625q-1.03125 0.140625 -1.453125 0.328125q-0.421875 0.1875 -0.65625 0.546875q-0.234375 0.359375 -0.234375 0.796875q0 0.671875 0.5 1.125q0.515625 0.4375 1.484375 0.4375q0.96875 0 1.71875 -0.421875q0.75 -0.4375 1.109375 -1.15625q0.265625 -0.578125 0.265625 -1.671875l0 -0.609375zm10.469482 4.9375l0 -1.25q-0.9375 1.46875 -2.75 1.46875q-1.171875 0 -2.171875 -0.640625q-0.984375 -0.65625 -1.53125 -1.8125q-0.53125 -1.171875 -0.53125 -2.6875q0 -1.46875 0.484375 -2.671875q0.5 -1.203125 1.46875 -1.84375q0.984375 -0.640625 2.203125 -0.640625q0.890625 0 1.578125 0.375q0.703125 0.375 1.140625 0.984375l0 -4.875l1.65625 0l0 13.59375l-1.546875 0zm-5.28125 -4.921875q0 1.890625 0.796875 2.828125q0.8125 0.9375 1.890625 0.9375q1.09375 0 1.859375 -0.890625q0.765625 -0.890625 0.765625 -2.734375q0 -2.015625 -0.78125 -2.953125q-0.78125 -0.953125 -1.921875 -0.953125q-1.109375 0 -1.859375 0.90625q-0.75 0.90625 -0.75 2.859375zm9.188202 8.71875l-0.171875 -1.5625q0.546875 0.140625 0.953125 0.140625q0.546875 0 0.875 -0.1875q0.34375 -0.1875 0.5625 -0.515625q0.15625 -0.25 0.5 -1.25q0.046875 -0.140625 0.15625 -0.40625l-3.734375 -9.875l1.796875 0l2.046875 5.71875q0.40625 1.078125 0.71875 2.28125q0.28125 -1.15625 0.6875 -2.25l2.09375 -5.75l1.671875 0l-3.75 10.03125q-0.59375 1.625 -0.9375 2.234375q-0.4375 0.828125 -1.015625 1.203125q-0.578125 0.390625 -1.375 0.390625q-0.484375 0 -1.078125 -0.203125z" fill-rule="nonzero"></path><path fill="#000000" fill-opacity="0.0" d="m414.2756 87.71785l0 31.275589" fill-rule="nonzero"></path><path stroke="#000000" stroke-width="1.0" stroke-linejoin="round" stroke-linecap="butt" d="m414.2756 87.71785l0 25.275589" fill-rule="evenodd"></path><path fill="#000000" stroke="#000000" stroke-width="1.0" stroke-linecap="butt" d="m412.62387 112.99344l1.6517334 4.5380936l1.6517334 -4.5380936z" fill-rule="evenodd"></path><path fill="#000000" fill-opacity="0.0" d="m601.4094 57.930447l110.77167 0l0 39.716534l-110.77167 0z" fill-rule="nonzero"></path><path fill="#000000" d="m621.4324 84.85044l0 -13.59375l1.84375 0l7.140625 10.671875l0 -10.671875l1.71875 0l0 13.59375l-1.84375 0l-7.140625 -10.6875l0 10.6875l-1.71875 0zm19.707336 -1.21875q-0.9375 0.796875 -1.796875 1.125q-0.859375 0.3125 -1.84375 0.3125q-1.609375 0 -2.484375 -0.78125q-0.875 -0.796875 -0.875 -2.03125q0 -0.734375 0.328125 -1.328125q0.328125 -0.59375 0.859375 -0.953125q0.53125 -0.359375 1.203125 -0.546875q0.5 -0.140625 1.484375 -0.25q2.03125 -0.25 2.984375 -0.578125q0 -0.34375 0 -0.4375q0 -1.015625 -0.46875 -1.4375q-0.640625 -0.5625 -1.90625 -0.5625q-1.171875 0 -1.734375 0.40625q-0.5625 0.40625 -0.828125 1.46875l-1.640625 -0.234375q0.234375 -1.046875 0.734375 -1.6875q0.515625 -0.640625 1.46875 -0.984375q0.96875 -0.359375 2.25 -0.359375q1.265625 0 2.046875 0.296875q0.78125 0.296875 1.15625 0.75q0.375 0.453125 0.515625 1.140625q0.09375 0.421875 0.09375 1.53125l0 2.234375q0 2.328125 0.09375 2.953125q0.109375 0.609375 0.4375 1.171875l-1.75 0q-0.265625 -0.515625 -0.328125 -1.21875zm-0.140625 -3.71875q-0.90625 0.359375 -2.734375 0.625q-1.03125 0.140625 -1.453125 0.328125q-0.421875 0.1875 -0.65625 0.546875q-0.234375 0.359375 -0.234375 0.796875q0 0.671875 0.5 1.125q0.515625 0.4375 1.484375 0.4375q0.96875 0 1.71875 -0.421875q0.75 -0.4375 1.109375 -1.15625q0.265625 -0.578125 0.265625 -1.671875l0 -0.609375zm6.8131714 4.9375l-3.75 -9.859375l1.765625 0l2.125 5.90625q0.34375 0.953125 0.625 1.984375q0.21875 -0.78125 0.625 -1.875l2.1875 -6.015625l1.71875 0l-3.734375 9.859375l-1.5625 0zm6.609375 -11.6875l0 -1.90625l1.671875 0l0 1.90625l-1.671875 0zm0 11.6875l0 -9.859375l1.671875 0l0 9.859375l-1.671875 0zm3.8323364 0.8125l1.609375 0.25q0.109375 0.75 0.578125 1.09375q0.609375 0.453125 1.6875 0.453125q1.171875 0 1.796875 -0.46875q0.625 -0.453125 0.859375 -1.28125q0.125 -0.515625 0.109375 -2.15625q-1.09375 1.296875 -2.71875 1.296875q-2.03125 0 -3.15625 -1.46875q-1.109375 -1.46875 -1.109375 -3.515625q0 -1.40625 0.515625 -2.59375q0.515625 -1.203125 1.484375 -1.84375q0.96875 -0.65625 2.265625 -0.65625q1.75 0 2.875 1.40625l0 -1.1875l1.546875 0l0 8.515625q0 2.3125 -0.46875 3.265625q-0.46875 0.96875 -1.484375 1.515625q-1.015625 0.5625 -2.5 0.5625q-1.765625 0 -2.859375 -0.796875q-1.078125 -0.796875 -1.03125 -2.390625zm1.375 -5.921875q0 1.953125 0.765625 2.84375q0.78125 0.890625 1.9375 0.890625q1.140625 0 1.921875 -0.890625q0.78125 -0.890625 0.78125 -2.78125q0 -1.8125 -0.8125 -2.71875q-0.796875 -0.921875 -1.921875 -0.921875q-1.109375 0 -1.890625 0.90625q-0.78125 0.890625 -0.78125 2.671875zm15.735107 3.890625q-0.9375 0.796875 -1.796875 1.125q-0.859375 0.3125 -1.84375 0.3125q-1.609375 0 -2.484375 -0.78125q-0.875 -0.796875 -0.875 -2.03125q0 -0.734375 0.328125 -1.328125q0.328125 -0.59375 0.859375 -0.953125q0.53125 -0.359375 1.203125 -0.546875q0.5 -0.140625 1.484375 -0.25q2.03125 -0.25 2.984375 -0.578125q0 -0.34375 0 -0.4375q0 -1.015625 -0.46875 -1.4375q-0.640625 -0.5625 -1.90625 -0.5625q-1.171875 0 -1.734375 0.40625q-0.5625 0.40625 -0.828125 1.46875l-1.640625 -0.234375q0.234375 -1.046875 0.734375 -1.6875q0.515625 -0.640625 1.46875 -0.984375q0.96875 -0.359375 2.25 -0.359375q1.265625 0 2.046875 0.296875q0.78125 0.296875 1.15625 0.75q0.375 0.453125 0.515625 1.140625q0.09375 0.421875 0.09375 1.53125l0 2.234375q0 2.328125 0.09375 2.953125q0.109375 0.609375 0.4375 1.171875l-1.75 0q-0.265625 -0.515625 -0.328125 -1.21875zm-0.140625 -3.71875q-0.90625 0.359375 -2.734375 0.625q-1.03125 0.140625 -1.453125 0.328125q-0.421875 0.1875 -0.65625 0.546875q-0.234375 0.359375 -0.234375 0.796875q0 0.671875 0.5 1.125q0.515625 0.4375 1.484375 0.4375q0.96875 0 1.71875 -0.421875q0.75 -0.4375 1.109375 -1.15625q0.265625 -0.578125 0.265625 -1.671875l0 -0.609375zm7.7351074 3.4375l0.234375 1.484375q-0.703125 0.140625 -1.265625 0.140625q-0.90625 0 -1.40625 -0.28125q-0.5 -0.296875 -0.703125 -0.75q-0.203125 -0.46875 -0.203125 -1.984375l0 -5.65625l-1.234375 0l0 -1.3125l1.234375 0l0 -2.4375l1.65625 -1.0l0 3.4375l1.6875 0l0 1.3125l-1.6875 0l0 5.75q0 0.71875 0.078125 0.921875q0.09375 0.203125 0.296875 0.328125q0.203125 0.125 0.578125 0.125q0.265625 0 0.734375 -0.078125zm8.277039 -1.671875l1.71875 0.21875q-0.40625 1.5 -1.515625 2.34375q-1.09375 0.828125 -2.8125 0.828125q-2.15625 0 -3.421875 -1.328125q-1.265625 -1.328125 -1.265625 -3.734375q0 -2.484375 1.265625 -3.859375q1.28125 -1.375 3.328125 -1.375q1.984375 0 3.234375 1.34375q1.25 1.34375 1.25 3.796875q0 0.140625 -0.015625 0.4375l-7.34375 0q0.09375 1.625 0.921875 2.484375q0.828125 0.859375 2.0625 0.859375q0.90625 0 1.546875 -0.46875q0.65625 -0.484375 1.046875 -1.546875zm-5.484375 -2.703125l5.5 0q-0.109375 -1.234375 -0.625 -1.859375q-0.796875 -0.96875 -2.078125 -0.96875q-1.140625 0 -1.9375 0.78125q-0.78125 0.765625 -0.859375 2.046875z" fill-rule="nonzero"></path><path fill="#000000" fill-opacity="0.0" d="m656.7953 89.6601l0 31.275589" fill-rule="nonzero"></path><path stroke="#000000" stroke-width="1.0" stroke-linejoin="round" stroke-linecap="butt" d="m656.7953 89.6601l0 25.275589" fill-rule="evenodd"></path><path fill="#000000" stroke="#000000" stroke-width="1.0" stroke-linecap="butt" d="m655.14355 114.9357l1.6517334 4.5380936l1.6517334 -4.5380936z" fill-rule="evenodd"></path><path fill="#442d4f" d="m415.69815 464.87402l130.89767 0l0 92.12598l-130.89767 0z" fill-rule="nonzero"></path><path fill="#ffffff" d="m429.11496 506.857l0 -13.59375l1.796875 0l0 11.984375l6.703125 0l0 1.609375l-8.5 0zm16.672607 -1.21875q-0.9375 0.796875 -1.796875 1.125q-0.859375 0.3125 -1.84375 0.3125q-1.609375 0 -2.484375 -0.78125q-0.875 -0.796875 -0.875 -2.03125q0 -0.734375 0.328125 -1.328125q0.328125 -0.59375 0.859375 -0.953125q0.53125 -0.359375 1.203125 -0.546875q0.5 -0.140625 1.484375 -0.25q2.03125 -0.25 2.984375 -0.578125q0 -0.34375 0 -0.4375q0 -1.015625 -0.46875 -1.4375q-0.640625 -0.5625 -1.90625 -0.5625q-1.171875 0 -1.734375 0.40625q-0.5625 0.40625 -0.828125 1.46875l-1.640625 -0.234375q0.234375 -1.046875 0.734375 -1.6875q0.515625 -0.640625 1.46875 -0.984375q0.96875 -0.359375 2.25 -0.359375q1.265625 0 2.046875 0.296875q0.78125 0.296875 1.15625 0.75q0.375 0.453125 0.515625 1.140625q0.09375 0.421875 0.09375 1.53125l0 2.234375q0 2.328125 0.09375 2.953125q0.109375 0.609375 0.4375 1.171875l-1.75 0q-0.265625 -0.515625 -0.328125 -1.21875zm-0.140625 -3.71875q-0.90625 0.359375 -2.734375 0.625q-1.03125 0.140625 -1.453125 0.328125q-0.421875 0.1875 -0.65625 0.546875q-0.234375 0.359375 -0.234375 0.796875q0 0.671875 0.5 1.125q0.515625 0.4375 1.484375 0.4375q0.96875 0 1.71875 -0.421875q0.75 -0.4375 1.109375 -1.15625q0.265625 -0.578125 0.265625 -1.671875l0 -0.609375zm3.203827 4.9375l0 -1.359375l6.265625 -7.1875q-1.0625 0.046875 -1.875 0.046875l-4.015625 0l0 -1.359375l8.046875 0l0 1.109375l-5.34375 6.25l-1.015625 1.140625q1.109375 -0.078125 2.09375 -0.078125l4.5625 0l0 1.4375l-8.71875 0zm10.125 3.796875l-0.171875 -1.5625q0.546875 0.140625 0.953125 0.140625q0.546875 0 0.875 -0.1875q0.34375 -0.1875 0.5625 -0.515625q0.15625 -0.25 0.5 -1.25q0.046875 -0.140625 0.15625 -0.40625l-3.734375 -9.875l1.796875 0l2.046875 5.71875q0.40625 1.078125 0.71875 2.28125q0.28125 -1.15625 0.6875 -2.25l2.09375 -5.75l1.671875 0l-3.75 10.03125q-0.59375 1.625 -0.9375 2.234375q-0.4375 0.828125 -1.015625 1.203125q-0.578125 0.390625 -1.375 0.390625q-0.484375 0 -1.078125 -0.203125zm14.730194 -3.796875l0 -13.59375l1.796875 0l0 11.984375l6.7030945 0l0 1.609375l-8.4999695 0zm9.610077 -4.921875q0 -2.734375 1.53125 -4.0625q1.265625 -1.09375 3.09375 -1.09375q2.03125 0 3.3125 1.34375q1.296875 1.328125 1.296875 3.671875q0 1.90625 -0.578125 3.0q-0.5625 1.078125 -1.65625 1.6875q-1.078125 0.59375 -2.375 0.59375q-2.0625 0 -3.34375 -1.328125q-1.28125 -1.328125 -1.28125 -3.8125zm1.71875 0q0 1.890625 0.828125 2.828125q0.828125 0.9375 2.078125 0.9375q1.25 0 2.0625 -0.9375q0.828125 -0.953125 0.828125 -2.890625q0 -1.828125 -0.828125 -2.765625q-0.828125 -0.9375 -2.0625 -0.9375q-1.25 0 -2.078125 0.9375q-0.828125 0.9375 -0.828125 2.828125zm15.719452 3.703125q-0.9375 0.796875 -1.796875 1.125q-0.859375 0.3125 -1.84375 0.3125q-1.609375 0 -2.484375 -0.78125q-0.875 -0.796875 -0.875 -2.03125q0 -0.734375 0.328125 -1.328125q0.328125 -0.59375 0.859375 -0.953125q0.53125 -0.359375 1.203125 -0.546875q0.5 -0.140625 1.484375 -0.25q2.03125 -0.25 2.984375 -0.578125q0 -0.34375 0 -0.4375q0 -1.015625 -0.46875 -1.4375q-0.640625 -0.5625 -1.90625 -0.5625q-1.171875 0 -1.734375 0.40625q-0.5625 0.40625 -0.828125 1.46875l-1.640625 -0.234375q0.234375 -1.046875 0.734375 -1.6875q0.515625 -0.640625 1.46875 -0.984375q0.96875 -0.359375 2.25 -0.359375q1.265625 0 2.046875 0.296875q0.78125 0.296875 1.15625 0.75q0.375 0.453125 0.515625 1.140625q0.09375 0.421875 0.09375 1.53125l0 2.234375q0 2.328125 0.09375 2.953125q0.109375 0.609375 0.4375 1.171875l-1.75 0q-0.265625 -0.515625 -0.328125 -1.21875zm-0.140625 -3.71875q-0.90625 0.359375 -2.734375 0.625q-1.03125 0.140625 -1.453125 0.328125q-0.421875 0.1875 -0.65625 0.546875q-0.234375 0.359375 -0.234375 0.796875q0 0.671875 0.5 1.125q0.515625 0.4375 1.484375 0.4375q0.96875 0 1.71875 -0.421875q0.75 -0.4375 1.109375 -1.15625q0.265625 -0.578125 0.265625 -1.671875l0 -0.609375zm10.469482 4.9375l0 -1.25q-0.9375 1.46875 -2.75 1.46875q-1.171875 0 -2.171875 -0.640625q-0.984375 -0.65625 -1.53125 -1.8125q-0.53125 -1.171875 -0.53125 -2.6875q0 -1.46875 0.484375 -2.671875q0.5 -1.203125 1.46875 -1.84375q0.984375 -0.640625 2.203125 -0.640625q0.890625 0 1.578125 0.375q0.703125 0.375 1.140625 0.984375l0 -4.875l1.6562195 0l0 13.59375l-1.5468445 0zm-5.28125 -4.921875q0 1.890625 0.796875 2.828125q0.8125 0.9375 1.890625 0.9375q1.09375 0 1.859375 -0.890625q0.765625 -0.890625 0.765625 -2.734375q0 -2.015625 -0.78125 -2.953125q-0.78125 -0.953125 -1.921875 -0.953125q-1.109375 0 -1.859375 0.90625q-0.75 0.90625 -0.75 2.859375zm16.016327 1.75l1.71875 0.21875q-0.40625 1.5 -1.515625 2.34375q-1.09375 0.828125 -2.8125 0.828125q-2.15625 0 -3.421875 -1.328125q-1.265625 -1.328125 -1.265625 -3.734375q0 -2.484375 1.265625 -3.859375q1.28125 -1.375 3.328125 -1.375q1.984375 0 3.234375 1.34375q1.25 1.34375 1.25 3.796875q0 0.140625 -0.015625 0.4375l-7.34375 0q0.09375 1.625 0.921875 2.484375q0.828125 0.859375 2.0625 0.859375q0.90625 0 1.546875 -0.46875q0.65625 -0.484375 1.046875 -1.546875zm-5.484375 -2.703125l5.5 0q-0.109375 -1.234375 -0.625 -1.859375q-0.796875 -0.96875 -2.078125 -0.96875q-1.140625 0 -1.9375 0.78125q-0.78125 0.765625 -0.859375 2.046875zm15.500732 5.875l0 -1.25q-0.9375 1.46875 -2.75 1.46875q-1.171875 0 -2.171875 -0.640625q-0.984375 -0.65625 -1.53125 -1.8125q-0.53125 -1.171875 -0.53125 -2.6875q0 -1.46875 0.484375 -2.671875q0.5 -1.203125 1.46875 -1.84375q0.984375 -0.640625 2.203125 -0.640625q0.890625 0 1.578125 0.375q0.703125 0.375 1.140625 0.984375l0 -4.875l1.65625 0l0 13.59375l-1.546875 0zm-5.28125 -4.921875q0 1.890625 0.796875 2.828125q0.8125 0.9375 1.890625 0.9375q1.09375 0 1.859375 -0.890625q0.765625 -0.890625 0.765625 -2.734375q0 -2.015625 -0.78125 -2.953125q-0.78125 -0.953125 -1.921875 -0.953125q-1.109375 0 -1.859375 0.90625q-0.75 0.90625 -0.75 2.859375z" fill-rule="nonzero"></path><path fill="#ffffff" d="m453.49197 528.857l0 -13.59375l5.109375 0q1.546875 0 2.484375 0.40625q0.953125 0.40625 1.484375 1.265625q0.53125 0.859375 0.53125 1.796875q0 0.875 -0.46875 1.65625q-0.46875 0.765625 -1.4375 1.234375q1.234375 0.359375 1.890625 1.234375q0.671875 0.875 0.671875 2.0625q0 0.953125 -0.40625 1.78125q-0.390625 0.8125 -0.984375 1.265625q-0.59375 0.4375 -1.5 0.671875q-0.890625 0.21875 -2.1875 0.21875l-5.1875 0zm1.796875 -7.890625l2.9375 0q1.203125 0 1.71875 -0.15625q0.6875 -0.203125 1.03125 -0.671875q0.359375 -0.46875 0.359375 -1.1875q0 -0.671875 -0.328125 -1.1875q-0.328125 -0.515625 -0.9375 -0.703125q-0.59375 -0.203125 -2.0625 -0.203125l-2.71875 0l0 4.109375zm0 6.28125l3.390625 0q0.875 0 1.21875 -0.0625q0.625 -0.109375 1.046875 -0.359375q0.421875 -0.265625 0.6875 -0.765625q0.265625 -0.5 0.265625 -1.140625q0 -0.765625 -0.390625 -1.328125q-0.390625 -0.5625 -1.078125 -0.78125q-0.6875 -0.234375 -1.984375 -0.234375l-3.15625 0l0 4.671875zm16.959198 1.609375l0 -1.453125q-1.140625 1.671875 -3.125 1.671875q-0.859375 0 -1.625 -0.328125q-0.75 -0.34375 -1.125 -0.84375q-0.359375 -0.5 -0.515625 -1.234375q-0.09375 -0.5 -0.09375 -1.5625l0 -6.109375l1.671875 0l0 5.46875q0 1.3125 0.09375 1.765625q0.15625 0.65625 0.671875 1.03125q0.515625 0.375 1.265625 0.375q0.75 0 1.40625 -0.375q0.65625 -0.390625 0.921875 -1.046875q0.28125 -0.671875 0.28125 -1.9375l0 -5.28125l1.671875 0l0 9.859375l-1.5 0zm3.9226074 0l0 -9.859375l1.5 0l0 1.40625q1.09375 -1.625 3.1405945 -1.625q0.890625 0 1.640625 0.328125q0.75 0.3125 1.109375 0.84375q0.375 0.515625 0.53125 1.21875q0.09375 0.46875 0.09375 1.625l0 6.0625l-1.671875 0l0 -6.0q0 -1.015625 -0.203125 -1.515625q-0.1875 -0.515625 -0.6875 -0.8125q-0.5 -0.296875 -1.171875 -0.296875q-1.0624695 0 -1.8437195 0.671875q-0.765625 0.671875 -0.765625 2.578125l0 5.375l-1.671875 0zm16.766327 0l0 -1.25q-0.9375 1.46875 -2.75 1.46875q-1.171875 0 -2.171875 -0.640625q-0.984375 -0.65625 -1.53125 -1.8125q-0.53125 -1.171875 -0.53125 -2.6875q0 -1.46875 0.484375 -2.671875q0.5 -1.203125 1.46875 -1.84375q0.984375 -0.640625 2.203125 -0.640625q0.890625 0 1.578125 0.375q0.703125 0.375 1.140625 0.984375l0 -4.875l1.65625 0l0 13.59375l-1.546875 0zm-5.28125 -4.921875q0 1.890625 0.796875 2.828125q0.8125 0.9375 1.890625 0.9375q1.09375 0 1.859375 -0.890625q0.765625 -0.890625 0.765625 -2.734375q0 -2.015625 -0.78125 -2.953125q-0.78125 -0.953125 -1.921875 -0.953125q-1.109375 0 -1.859375 0.90625q-0.75 0.90625 -0.75 2.859375zm9.235077 4.921875l0 -13.59375l1.671875 0l0 13.59375l-1.671875 0zm10.926086 -3.171875l1.71875 0.21875q-0.40625 1.5 -1.515625 2.34375q-1.09375 0.828125 -2.8125 0.828125q-2.15625 0 -3.421875 -1.328125q-1.265625 -1.328125 -1.265625 -3.734375q0 -2.484375 1.265625 -3.859375q1.28125 -1.375 3.328125 -1.375q1.984375 0 3.234375 1.34375q1.25 1.34375 1.25 3.796875q0 0.140625 -0.015625 0.4375l-7.34375 0q0.09375 1.625 0.921875 2.484375q0.828125 0.859375 2.0625 0.859375q0.90625 0 1.546875 -0.46875q0.65625 -0.484375 1.046875 -1.546875zm-5.484375 -2.703125l5.5 0q-0.109375 -1.234375 -0.625 -1.859375q-0.796875 -0.96875 -2.078125 -0.96875q-1.140625 0 -1.9375 0.78125q-0.78125 0.765625 -0.859375 2.046875z" fill-rule="nonzero"></path></g></svg>

